<?xml version="1.0" encoding="UTF-8" standalone="no"?><!DOCTYPE svg PUBLIC "-//W3C//DTD SVG 1.1//EN" "http://www.w3.org/Graphics/SVG/1.1/DTD/svg11.dtd"><svg width="100%" height="100%" viewBox="0 0 834 834" version="1.1" xmlns="http://www.w3.org/2000/svg" xmlns:xlink="http://www.w3.org/1999/xlink" xml:space="preserve" style="fill-rule:evenodd;clip-rule:evenodd;stroke-linejoin:round;stroke-miterlimit:1.41421;"><path d="M0,833.333l833.333,-833.333l-833.333,0l0,833.333Z" style="fill:#0d28f2;"/><path d="M0,833.333l716.667,-716.666l-716.667,0l0,716.666Z" style="fill:#0d79f2;"/><path d="M0,833.333l600,-600l-600,0l0,600Z" style="fill:#0dcaf2;"/><path d="M0,833.333l833.333,-833.333l0,833.333l-833.333,0Z" style="fill:#f20d0d;"/><path d="M0,833.333l716.667,-716.666l0,716.666l-716.667,0Z" style="fill:#f25e0d;"/><path d="M0,833.333l600,-600l0,600l-600,0Z" style="fill:#f2af0d;"/><g><path d="M46.004,69.092l0,4.223l-23.657,0c-0.033,-1.058 0.138,-2.075 0.513,-3.051c0.602,-1.612 1.566,-3.199 2.893,-4.761c1.326,-1.563 3.243,-3.369 5.749,-5.42c3.89,-3.19 6.519,-5.717 7.886,-7.581c1.367,-1.863 2.051,-3.625 2.051,-5.285c0,-1.742 -0.623,-3.211 -1.868,-4.407c-1.245,-1.196 -2.869,-1.794 -4.87,-1.794c-2.116,0 -3.809,0.634 -5.079,1.904c-1.269,1.269 -1.912,3.027 -1.928,5.273l-4.517,-0.464c0.309,-3.369 1.473,-5.936 3.491,-7.702c2.019,-1.766 4.728,-2.649 8.13,-2.649c3.434,0 6.153,0.952 8.154,2.856c2.002,1.905 3.003,4.265 3.003,7.08c0,1.433 -0.293,2.841 -0.879,4.224c-0.585,1.384 -1.558,2.84 -2.917,4.37c-1.359,1.53 -3.617,3.63 -6.775,6.299c-2.637,2.214 -4.329,3.715 -5.078,4.504c-0.749,0.79 -1.367,1.583 -1.855,2.381l17.553,0Z" style="fill:#0dcaf2;fill-rule:nonzero;"/><path d="M50.716,55.664c0,-4.232 0.436,-7.637 1.306,-10.217c0.871,-2.58 2.165,-4.57 3.882,-5.969c1.717,-1.4 3.878,-2.1 6.482,-2.1c1.921,0 3.605,0.386 5.054,1.16c1.448,0.773 2.645,1.888 3.589,3.344c0.944,1.457 1.684,3.231 2.221,5.323c0.537,2.091 0.806,4.911 0.806,8.459c0,4.199 -0.431,7.589 -1.294,10.169c-0.863,2.579 -2.152,4.573 -3.87,5.981c-1.717,1.408 -3.885,2.112 -6.506,2.112c-3.45,0 -6.16,-1.237 -8.13,-3.711c-2.36,-2.979 -3.54,-7.829 -3.54,-14.551Zm4.517,0c0,5.876 0.687,9.786 2.063,11.731c1.375,1.945 3.072,2.918 5.09,2.918c2.018,0 3.715,-0.977 5.09,-2.93c1.376,-1.953 2.063,-5.86 2.063,-11.719c0,-5.892 -0.687,-9.806 -2.063,-11.743c-1.375,-1.937 -3.088,-2.905 -5.139,-2.905c-2.018,0 -3.629,0.854 -4.834,2.563c-1.513,2.181 -2.27,6.209 -2.27,12.085Z" style="fill:#0dcaf2;fill-rule:nonzero;"/><path d="M78.524,55.664c0,-4.232 0.435,-7.637 1.306,-10.217c0.871,-2.58 2.165,-4.57 3.882,-5.969c1.717,-1.4 3.878,-2.1 6.482,-2.1c1.92,0 3.605,0.386 5.053,1.16c1.449,0.773 2.645,1.888 3.589,3.344c0.944,1.457 1.685,3.231 2.222,5.323c0.537,2.091 0.806,4.911 0.806,8.459c0,4.199 -0.432,7.589 -1.294,10.169c-0.863,2.579 -2.153,4.573 -3.87,5.981c-1.717,1.408 -3.886,2.112 -6.506,2.112c-3.451,0 -6.161,-1.237 -8.13,-3.711c-2.36,-2.979 -3.54,-7.829 -3.54,-14.551Zm4.516,0c0,5.876 0.688,9.786 2.063,11.731c1.376,1.945 3.072,2.918 5.091,2.918c2.018,0 3.715,-0.977 5.09,-2.93c1.375,-1.953 2.063,-5.86 2.063,-11.719c0,-5.892 -0.688,-9.806 -2.063,-11.743c-1.375,-1.937 -3.088,-2.905 -5.139,-2.905c-2.018,0 -3.63,0.854 -4.834,2.563c-1.514,2.181 -2.271,6.209 -2.271,12.085Z" style="fill:#0dcaf2;fill-rule:nonzero;"/><path d="M104.622,73.315l9.473,-13.476l-8.765,-12.451l5.494,0l3.979,6.079c0.749,1.155 1.351,2.124 1.807,2.905c0.716,-1.074 1.375,-2.026 1.977,-2.856l4.37,-6.128l5.249,0l-8.96,12.207l9.644,13.72l-5.396,0l-5.322,-8.056l-1.416,-2.173l-6.811,10.229l-5.323,0Z" style="fill:#0dcaf2;fill-rule:nonzero;"/><path d="M154.427,69.092l0,4.223l-23.657,0c-0.033,-1.058 0.138,-2.075 0.513,-3.051c0.602,-1.612 1.566,-3.199 2.893,-4.761c1.326,-1.563 3.243,-3.369 5.749,-5.42c3.89,-3.19 6.519,-5.717 7.886,-7.581c1.367,-1.863 2.051,-3.625 2.051,-5.285c0,-1.742 -0.623,-3.211 -1.868,-4.407c-1.245,-1.196 -2.869,-1.794 -4.871,-1.794c-2.116,0 -3.808,0.634 -5.078,1.904c-1.269,1.269 -1.912,3.027 -1.928,5.273l-4.517,-0.464c0.309,-3.369 1.473,-5.936 3.491,-7.702c2.018,-1.766 4.728,-2.649 8.13,-2.649c3.434,0 6.152,0.952 8.154,2.856c2.002,1.905 3.003,4.265 3.003,7.08c0,1.433 -0.293,2.841 -0.879,4.224c-0.586,1.384 -1.558,2.84 -2.917,4.37c-1.359,1.53 -3.617,3.63 -6.775,6.299c-2.637,2.214 -4.329,3.715 -5.078,4.504c-0.749,0.79 -1.367,1.583 -1.856,2.381l17.554,0Z" style="fill:#0dcaf2;fill-rule:nonzero;"/><path d="M159.139,55.664c0,-4.232 0.435,-7.637 1.306,-10.217c0.871,-2.58 2.165,-4.57 3.882,-5.969c1.717,-1.4 3.878,-2.1 6.482,-2.1c1.92,0 3.605,0.386 5.054,1.16c1.448,0.773 2.644,1.888 3.588,3.344c0.945,1.457 1.685,3.231 2.222,5.323c0.537,2.091 0.806,4.911 0.806,8.459c0,4.199 -0.431,7.589 -1.294,10.169c-0.863,2.579 -2.153,4.573 -3.87,5.981c-1.717,1.408 -3.886,2.112 -6.506,2.112c-3.451,0 -6.161,-1.237 -8.13,-3.711c-2.36,-2.979 -3.54,-7.829 -3.54,-14.551Zm4.517,0c0,5.876 0.687,9.786 2.063,11.731c1.375,1.945 3.072,2.918 5.09,2.918c2.018,0 3.715,-0.977 5.09,-2.93c1.376,-1.953 2.063,-5.86 2.063,-11.719c0,-5.892 -0.687,-9.806 -2.063,-11.743c-1.375,-1.937 -3.088,-2.905 -5.139,-2.905c-2.018,0 -3.629,0.854 -4.834,2.563c-1.514,2.181 -2.27,6.209 -2.27,12.085Z" style="fill:#0dcaf2;fill-rule:nonzero;"/><path d="M186.947,55.664c0,-4.232 0.435,-7.637 1.306,-10.217c0.871,-2.58 2.164,-4.57 3.882,-5.969c1.717,-1.4 3.877,-2.1 6.482,-2.1c1.92,0 3.605,0.386 5.053,1.16c1.449,0.773 2.645,1.888 3.589,3.344c0.944,1.457 1.685,3.231 2.222,5.323c0.537,2.091 0.805,4.911 0.805,8.459c0,4.199 -0.431,7.589 -1.293,10.169c-0.863,2.579 -2.153,4.573 -3.87,5.981c-1.717,1.408 -3.886,2.112 -6.506,2.112c-3.451,0 -6.161,-1.237 -8.13,-3.711c-2.36,-2.979 -3.54,-7.829 -3.54,-14.551Zm4.516,0c0,5.876 0.688,9.786 2.063,11.731c1.376,1.945 3.072,2.918 5.091,2.918c2.018,0 3.715,-0.977 5.09,-2.93c1.375,-1.953 2.063,-5.86 2.063,-11.719c0,-5.892 -0.688,-9.806 -2.063,-11.743c-1.375,-1.937 -3.089,-2.905 -5.139,-2.905c-2.019,0 -3.63,0.854 -4.834,2.563c-1.514,2.181 -2.271,6.209 -2.271,12.085Z" style="fill:#0dcaf2;fill-rule:nonzero;"/></g></svg>