<?xml version="1.0" encoding="UTF-8" standalone="no"?><!DOCTYPE svg PUBLIC "-//W3C//DTD SVG 1.1//EN" "http://www.w3.org/Graphics/SVG/1.1/DTD/svg11.dtd"><svg width="100%" height="100%" viewBox="0 0 62 62" version="1.1" xmlns="http://www.w3.org/2000/svg" xmlns:xlink="http://www.w3.org/1999/xlink" xml:space="preserve" style="fill-rule:evenodd;clip-rule:evenodd;stroke-linejoin:round;stroke-miterlimit:1.41421;"><g><path d="M4.887,7.743c0.124,0.095 0.209,0.184 0.254,0.269c0.057,0.111 0.086,0.245 0.086,0.399l0,1.339c0,0.142 0.041,0.258 0.123,0.349c0.082,0.09 0.184,0.142 0.306,0.154c0.077,0.008 0.128,0.023 0.152,0.045c0.033,0.03 0.049,0.067 0.049,0.112c0,0.047 -0.016,0.085 -0.049,0.114c-0.032,0.028 -0.079,0.043 -0.141,0.043c-0.197,0 -0.361,-0.062 -0.493,-0.187c-0.176,-0.171 -0.264,-0.38 -0.264,-0.626l0,-1.343c0,-0.137 -0.042,-0.252 -0.124,-0.345c-0.082,-0.094 -0.186,-0.145 -0.313,-0.155c-0.07,-0.008 -0.118,-0.025 -0.145,-0.052c-0.028,-0.028 -0.041,-0.066 -0.041,-0.116c0,-0.047 0.013,-0.085 0.041,-0.112c0.027,-0.027 0.075,-0.045 0.145,-0.052c0.129,-0.01 0.234,-0.062 0.315,-0.155c0.081,-0.093 0.122,-0.208 0.122,-0.345l0,-1.343c0,-0.234 0.074,-0.428 0.223,-0.584c0.15,-0.155 0.329,-0.233 0.537,-0.233c0.06,0 0.106,0.015 0.138,0.045c0.033,0.03 0.049,0.067 0.049,0.112c0,0.045 -0.016,0.082 -0.049,0.112c-0.022,0.025 -0.073,0.041 -0.152,0.048c-0.125,0.013 -0.227,0.065 -0.308,0.157c-0.081,0.092 -0.121,0.206 -0.121,0.343l0,1.343c0,0.157 -0.025,0.283 -0.075,0.379c-0.05,0.095 -0.138,0.191 -0.265,0.285l0,0Z" style="fill:#00a109;fill-rule:nonzero;"/><path d="M9.837,7.743c-0.127,-0.094 -0.211,-0.184 -0.254,-0.269c-0.057,-0.109 -0.086,-0.241 -0.086,-0.395l0,-1.343c0,-0.139 -0.041,-0.255 -0.123,-0.347c-0.082,-0.092 -0.184,-0.143 -0.305,-0.153c-0.08,-0.007 -0.131,-0.022 -0.153,-0.044c-0.033,-0.033 -0.049,-0.071 -0.049,-0.116c0,-0.045 0.016,-0.082 0.047,-0.112c0.031,-0.03 0.077,-0.045 0.14,-0.045c0.199,0 0.363,0.064 0.492,0.191c0.177,0.169 0.265,0.378 0.265,0.626l0,1.343c0,0.137 0.041,0.252 0.125,0.345c0.083,0.093 0.188,0.145 0.315,0.155c0.067,0.007 0.115,0.025 0.144,0.052c0.028,0.027 0.042,0.065 0.042,0.112c0,0.05 -0.014,0.088 -0.042,0.116c-0.029,0.027 -0.077,0.044 -0.144,0.052c-0.129,0.01 -0.235,0.061 -0.317,0.155c-0.082,0.093 -0.123,0.208 -0.123,0.345l0,1.343c0,0.233 -0.075,0.428 -0.224,0.583c-0.149,0.156 -0.327,0.233 -0.533,0.233c-0.063,0 -0.109,-0.015 -0.14,-0.044c-0.031,-0.03 -0.047,-0.069 -0.047,-0.116c0,-0.045 0.015,-0.082 0.045,-0.112c0.025,-0.022 0.077,-0.037 0.157,-0.045c0.124,-0.012 0.226,-0.065 0.307,-0.158c0.081,-0.093 0.121,-0.208 0.121,-0.345l0,-1.339c0,-0.157 0.025,-0.284 0.075,-0.381c0.05,-0.097 0.138,-0.192 0.265,-0.287l0,0Z" style="fill:#00a109;fill-rule:nonzero;"/></g><g><path d="M7.621,20.561l-3.548,3.547l0.538,0.538c0.053,0.053 0.081,0.101 0.083,0.144c0.003,0.043 -0.013,0.082 -0.046,0.115c-0.033,0.033 -0.072,0.049 -0.115,0.046c-0.043,-0.003 -0.091,-0.03 -0.143,-0.083l-0.76,-0.76l3.993,-3.993l0.76,0.76c0.053,0.052 0.08,0.101 0.082,0.145c0.001,0.044 -0.015,0.082 -0.048,0.116c-0.032,0.032 -0.069,0.046 -0.113,0.045c-0.044,-0.002 -0.093,-0.029 -0.145,-0.082l-0.538,-0.538l0,0Z" style="fill:#e2090a;fill-rule:nonzero;"/><path d="M7.098,27.134l3.548,-3.548l-0.536,-0.535c-0.052,-0.053 -0.08,-0.101 -0.081,-0.145c-0.002,-0.044 0.013,-0.082 0.044,-0.114c0.034,-0.033 0.073,-0.049 0.116,-0.047c0.044,0.002 0.093,0.029 0.146,0.082l0.759,0.759l-3.993,3.993l-0.76,-0.759c-0.052,-0.053 -0.08,-0.101 -0.083,-0.144c-0.002,-0.043 0.013,-0.081 0.046,-0.115c0.032,-0.031 0.07,-0.046 0.114,-0.045c0.044,0.002 0.092,0.029 0.145,0.082l0.535,0.536Z" style="fill:#e2090a;fill-rule:nonzero;"/></g><g><path d="M7.364,37.124c0.286,0 0.589,0.037 0.91,0.112c0.321,0.075 0.691,0.218 1.112,0.429c0.42,0.211 0.673,0.366 0.761,0.463c0.027,0.029 0.041,0.062 0.041,0.096c0,0.045 -0.015,0.083 -0.045,0.114c-0.03,0.031 -0.066,0.047 -0.108,0.047c-0.025,0 -0.053,-0.009 -0.082,-0.026c-0.503,-0.274 -0.958,-0.469 -1.366,-0.586c-0.407,-0.117 -0.815,-0.175 -1.223,-0.175c-0.41,0 -0.819,0.058 -1.227,0.175c-0.408,0.117 -0.862,0.312 -1.362,0.586c-0.03,0.017 -0.057,0.026 -0.082,0.026c-0.042,0 -0.079,-0.016 -0.11,-0.047c-0.031,-0.031 -0.046,-0.069 -0.046,-0.114c0,-0.034 0.013,-0.067 0.041,-0.096c0.084,-0.092 0.332,-0.243 0.742,-0.452c0.41,-0.209 0.773,-0.353 1.089,-0.433c0.316,-0.079 0.634,-0.119 0.955,-0.119l0,0Z" style="fill:#f0b50c;fill-rule:nonzero;"/><path d="M7.36,41.835c-0.286,0 -0.589,-0.037 -0.908,-0.112c-0.32,-0.074 -0.69,-0.217 -1.112,-0.429c-0.421,-0.211 -0.674,-0.365 -0.759,-0.462c-0.03,-0.03 -0.044,-0.062 -0.044,-0.097c0,-0.045 0.015,-0.083 0.046,-0.114c0.031,-0.031 0.068,-0.047 0.11,-0.047c0.025,0 0.052,0.009 0.082,0.027c0.5,0.273 0.954,0.468 1.362,0.585c0.408,0.117 0.815,0.175 1.223,0.175c0.41,0 0.82,-0.058 1.227,-0.175c0.408,-0.117 0.863,-0.312 1.366,-0.585c0.029,-0.018 0.057,-0.027 0.082,-0.027c0.042,0 0.078,0.016 0.108,0.047c0.03,0.031 0.045,0.069 0.045,0.114c0,0.035 -0.014,0.067 -0.041,0.097c-0.085,0.092 -0.332,0.242 -0.743,0.451c-0.41,0.209 -0.773,0.353 -1.089,0.433c-0.316,0.079 -0.634,0.119 -0.955,0.119l0,0Z" style="fill:#f0b50c;fill-rule:nonzero;"/></g><path d="M7.571,51.38l0.138,0c0.139,0 0.258,0.05 0.356,0.149c0.098,0.1 0.147,0.218 0.147,0.354c0,0.147 -0.049,0.269 -0.149,0.366c-0.099,0.097 -0.217,0.146 -0.354,0.146l-0.138,0c-0.139,0 -0.258,-0.05 -0.356,-0.15c-0.099,-0.099 -0.148,-0.217 -0.148,-0.354c0,-0.147 0.051,-0.269 0.151,-0.366c0.101,-0.097 0.219,-0.145 0.353,-0.145l0,0Zm-0.545,2.104l0.985,0l-1.056,1.73c-0.052,0.085 -0.093,0.138 -0.125,0.161c-0.031,0.022 -0.067,0.033 -0.11,0.033c-0.059,0 -0.109,-0.018 -0.149,-0.056c-0.04,-0.037 -0.059,-0.082 -0.059,-0.134c0,-0.03 0.007,-0.068 0.022,-0.115l0.492,-1.619l0,0Z" style="fill:#000b9b;fill-rule:nonzero;"/><g><path d="M22.005,38.652c0.155,-0.021 0.278,-0.018 0.369,0.01c0.12,0.039 0.234,0.113 0.343,0.222l0.947,0.947c0.1,0.1 0.212,0.153 0.334,0.159c0.122,0.006 0.231,-0.029 0.325,-0.107c0.06,-0.049 0.107,-0.074 0.14,-0.076c0.044,-0.002 0.082,0.013 0.114,0.045c0.033,0.033 0.048,0.071 0.046,0.115c-0.003,0.043 -0.026,0.086 -0.07,0.13c-0.139,0.139 -0.299,0.211 -0.48,0.216c-0.246,0.004 -0.456,-0.081 -0.63,-0.255l-0.95,-0.95c-0.097,-0.097 -0.207,-0.149 -0.331,-0.157c-0.124,-0.008 -0.234,0.03 -0.331,0.112c-0.055,0.044 -0.101,0.066 -0.14,0.066c-0.039,0 -0.075,-0.017 -0.111,-0.053c-0.033,-0.033 -0.05,-0.069 -0.05,-0.108c0,-0.038 0.022,-0.085 0.066,-0.14c0.085,-0.098 0.122,-0.209 0.114,-0.332c-0.009,-0.123 -0.062,-0.233 -0.159,-0.33l-0.949,-0.949c-0.165,-0.165 -0.25,-0.356 -0.255,-0.571c-0.004,-0.216 0.068,-0.397 0.215,-0.545c0.043,-0.042 0.086,-0.064 0.13,-0.066c0.044,-0.002 0.081,0.013 0.113,0.045c0.032,0.032 0.047,0.07 0.045,0.113c0.002,0.034 -0.023,0.081 -0.074,0.143c-0.079,0.097 -0.115,0.206 -0.107,0.328c0.008,0.123 0.06,0.232 0.157,0.329l0.95,0.949c0.11,0.111 0.182,0.218 0.215,0.321c0.032,0.103 0.037,0.232 0.014,0.389l0,0Z" style="fill:#00a109;fill-rule:nonzero;"/><path d="M25.505,35.152c-0.156,0.023 -0.279,0.019 -0.369,-0.011c-0.118,-0.037 -0.231,-0.11 -0.34,-0.219l-0.95,-0.949c-0.098,-0.099 -0.209,-0.152 -0.332,-0.159c-0.123,-0.007 -0.231,0.029 -0.325,0.109c-0.061,0.051 -0.108,0.076 -0.139,0.076c-0.046,0 -0.085,-0.016 -0.117,-0.047c-0.031,-0.032 -0.047,-0.069 -0.046,-0.113c0.001,-0.043 0.024,-0.086 0.068,-0.13c0.14,-0.141 0.301,-0.212 0.482,-0.214c0.245,-0.005 0.455,0.08 0.631,0.256l0.949,0.95c0.097,0.096 0.208,0.148 0.332,0.155c0.125,0.007 0.236,-0.031 0.333,-0.113c0.053,-0.042 0.099,-0.064 0.138,-0.065c0.04,-0.001 0.076,0.016 0.11,0.049c0.035,0.035 0.052,0.073 0.051,0.112c-0.001,0.04 -0.022,0.086 -0.064,0.139c-0.085,0.098 -0.123,0.209 -0.115,0.333c0.008,0.124 0.06,0.235 0.157,0.331l0.949,0.95c0.166,0.165 0.25,0.355 0.255,0.571c0.004,0.215 -0.067,0.396 -0.213,0.542c-0.043,0.044 -0.087,0.066 -0.13,0.067c-0.043,0.001 -0.081,-0.015 -0.115,-0.049c-0.031,-0.031 -0.047,-0.068 -0.047,-0.11c0.001,-0.034 0.028,-0.081 0.079,-0.143c0.079,-0.097 0.114,-0.207 0.105,-0.33c-0.008,-0.123 -0.061,-0.233 -0.158,-0.329l-0.947,-0.947c-0.111,-0.111 -0.183,-0.218 -0.216,-0.322c-0.033,-0.104 -0.039,-0.234 -0.016,-0.39l0,0Z" style="fill:#00a109;fill-rule:nonzero;"/></g><g><path d="M22.171,50.442l-3.548,3.548l0.538,0.538c0.053,0.053 0.081,0.101 0.083,0.144c0.003,0.043 -0.013,0.081 -0.046,0.114c-0.033,0.034 -0.072,0.049 -0.115,0.047c-0.043,-0.003 -0.091,-0.031 -0.143,-0.084l-0.76,-0.759l3.993,-3.993l0.76,0.759c0.053,0.053 0.08,0.101 0.082,0.145c0.001,0.044 -0.014,0.083 -0.048,0.116c-0.032,0.032 -0.069,0.047 -0.113,0.045c-0.044,-0.002 -0.093,-0.029 -0.145,-0.082l-0.538,-0.538l0,0Z" style="fill:#e2090a;fill-rule:nonzero;"/><path d="M21.648,57.015l3.548,-3.547l-0.536,-0.536c-0.052,-0.053 -0.08,-0.101 -0.081,-0.145c-0.002,-0.044 0.013,-0.082 0.045,-0.113c0.033,-0.034 0.072,-0.05 0.116,-0.048c0.044,0.002 0.092,0.029 0.145,0.082l0.759,0.76l-3.993,3.993l-0.76,-0.76c-0.052,-0.053 -0.08,-0.1 -0.083,-0.144c-0.002,-0.043 0.013,-0.081 0.046,-0.114c0.032,-0.032 0.07,-0.047 0.114,-0.045c0.044,0.002 0.092,0.029 0.145,0.082l0.535,0.535Z" style="fill:#e2090a;fill-rule:nonzero;"/></g><g><path d="M23.249,5.389c0.286,0 0.589,0.038 0.91,0.112c0.321,0.075 0.691,0.218 1.112,0.429c0.42,0.212 0.674,0.366 0.761,0.463c0.027,0.03 0.041,0.062 0.041,0.097c0,0.044 -0.015,0.082 -0.045,0.113c-0.03,0.032 -0.066,0.047 -0.108,0.047c-0.025,0 -0.052,-0.009 -0.082,-0.026c-0.503,-0.274 -0.958,-0.469 -1.366,-0.586c-0.407,-0.117 -0.815,-0.175 -1.223,-0.175c-0.41,0 -0.819,0.058 -1.227,0.175c-0.408,0.117 -0.862,0.312 -1.362,0.586c-0.029,0.017 -0.057,0.026 -0.082,0.026c-0.042,0 -0.079,-0.015 -0.11,-0.047c-0.031,-0.031 -0.046,-0.069 -0.046,-0.113c0,-0.035 0.013,-0.067 0.041,-0.097c0.084,-0.092 0.332,-0.243 0.742,-0.452c0.41,-0.208 0.773,-0.353 1.089,-0.432c0.316,-0.08 0.634,-0.12 0.955,-0.12l0,0Z" style="fill:#f0b50c;fill-rule:nonzero;"/><path d="M23.245,10.1c-0.286,0 -0.588,-0.037 -0.908,-0.111c-0.32,-0.075 -0.69,-0.218 -1.112,-0.429c-0.421,-0.212 -0.674,-0.366 -0.759,-0.463c-0.029,-0.03 -0.044,-0.062 -0.044,-0.097c0,-0.045 0.015,-0.083 0.046,-0.114c0.031,-0.031 0.068,-0.046 0.11,-0.046c0.025,0 0.053,0.008 0.082,0.026c0.5,0.273 0.954,0.469 1.362,0.585c0.408,0.117 0.815,0.176 1.223,0.176c0.411,0 0.82,-0.059 1.227,-0.176c0.408,-0.116 0.863,-0.312 1.366,-0.585c0.03,-0.018 0.057,-0.026 0.082,-0.026c0.042,0 0.078,0.015 0.108,0.046c0.03,0.031 0.045,0.069 0.045,0.114c0,0.035 -0.014,0.067 -0.041,0.097c-0.085,0.092 -0.332,0.242 -0.743,0.451c-0.41,0.209 -0.773,0.353 -1.089,0.433c-0.316,0.08 -0.634,0.119 -0.955,0.119l0,0Z" style="fill:#f0b50c;fill-rule:nonzero;"/></g><path d="M22.33,19.783l0.138,0c0.139,0 0.258,0.05 0.356,0.15c0.098,0.099 0.147,0.217 0.147,0.354c0,0.147 -0.049,0.269 -0.149,0.366c-0.099,0.097 -0.217,0.145 -0.354,0.145l-0.138,0c-0.139,0 -0.258,-0.05 -0.356,-0.149c-0.099,-0.1 -0.148,-0.218 -0.148,-0.354c0,-0.147 0.051,-0.269 0.151,-0.366c0.101,-0.097 0.218,-0.146 0.353,-0.146l0,0Zm-0.545,2.104l0.985,0l-1.056,1.731c-0.052,0.085 -0.094,0.138 -0.125,0.16c-0.031,0.023 -0.067,0.034 -0.11,0.034c-0.059,0 -0.109,-0.019 -0.149,-0.056c-0.04,-0.037 -0.06,-0.082 -0.06,-0.134c0,-0.03 0.008,-0.069 0.023,-0.116l0.492,-1.619Z" style="fill:#000b9b;fill-rule:nonzero;"/><path d="M37.116,5.731l0.138,0c0.139,0 0.258,0.049 0.356,0.149c0.099,0.099 0.148,0.217 0.148,0.354c0,0.147 -0.05,0.269 -0.149,0.366c-0.1,0.097 -0.218,0.145 -0.355,0.145l-0.138,0c-0.139,0 -0.258,-0.05 -0.356,-0.149c-0.098,-0.099 -0.147,-0.218 -0.147,-0.354c0,-0.147 0.05,-0.269 0.151,-0.366c0.1,-0.097 0.218,-0.145 0.352,-0.145l0,0Zm-0.544,2.103l0.984,0l-1.055,1.731c-0.053,0.085 -0.094,0.138 -0.125,0.161c-0.031,0.022 -0.068,0.033 -0.11,0.033c-0.06,0 -0.11,-0.019 -0.15,-0.056c-0.039,-0.037 -0.059,-0.082 -0.059,-0.134c0,-0.03 0.007,-0.069 0.022,-0.116l0.493,-1.619l0,0Z" style="fill:#e2090a;fill-rule:nonzero;"/><g><path d="M34.809,20.633c0.021,0.155 0.018,0.278 -0.01,0.369c-0.039,0.12 -0.113,0.234 -0.222,0.343l-0.947,0.947c-0.1,0.1 -0.153,0.211 -0.159,0.334c-0.006,0.122 0.029,0.23 0.107,0.325c0.049,0.06 0.074,0.107 0.076,0.14c0.002,0.044 -0.013,0.082 -0.045,0.114c-0.033,0.033 -0.071,0.048 -0.114,0.046c-0.044,-0.003 -0.087,-0.026 -0.131,-0.07c-0.139,-0.139 -0.211,-0.299 -0.216,-0.48c-0.004,-0.246 0.081,-0.457 0.256,-0.631l0.949,-0.949c0.097,-0.097 0.149,-0.207 0.157,-0.331c0.008,-0.124 -0.029,-0.234 -0.112,-0.331c-0.044,-0.055 -0.066,-0.101 -0.066,-0.14c0,-0.039 0.018,-0.076 0.053,-0.111c0.033,-0.033 0.069,-0.05 0.108,-0.05c0.039,0 0.085,0.022 0.14,0.066c0.098,0.084 0.209,0.122 0.332,0.113c0.123,-0.008 0.233,-0.061 0.33,-0.158l0.949,-0.949c0.165,-0.166 0.356,-0.25 0.571,-0.255c0.216,-0.004 0.397,0.067 0.545,0.215c0.042,0.042 0.064,0.085 0.066,0.129c0.002,0.044 -0.013,0.082 -0.045,0.114c-0.032,0.031 -0.069,0.046 -0.113,0.045c-0.034,0.001 -0.081,-0.023 -0.143,-0.074c-0.097,-0.079 -0.206,-0.115 -0.328,-0.107c-0.122,0.008 -0.232,0.06 -0.329,0.157l-0.949,0.949c-0.111,0.111 -0.218,0.183 -0.321,0.215c-0.102,0.033 -0.232,0.038 -0.389,0.015l0,0Z" style="fill:#00a109;fill-rule:nonzero;"/><path d="M38.309,24.133c-0.022,-0.157 -0.019,-0.28 0.011,-0.369c0.037,-0.118 0.11,-0.232 0.219,-0.341l0.949,-0.949c0.099,-0.099 0.152,-0.209 0.159,-0.332c0.007,-0.124 -0.029,-0.232 -0.108,-0.325c-0.051,-0.061 -0.077,-0.108 -0.077,-0.14c0,-0.045 0.016,-0.084 0.047,-0.116c0.032,-0.031 0.07,-0.047 0.113,-0.046c0.043,0.001 0.086,0.023 0.13,0.067c0.141,0.141 0.212,0.302 0.214,0.483c0.005,0.245 -0.08,0.455 -0.256,0.63l-0.95,0.95c-0.096,0.097 -0.148,0.207 -0.155,0.332c-0.007,0.125 0.031,0.236 0.113,0.333c0.042,0.052 0.064,0.099 0.065,0.138c0.001,0.04 -0.016,0.076 -0.049,0.11c-0.035,0.035 -0.072,0.052 -0.112,0.051c-0.04,-0.001 -0.086,-0.022 -0.139,-0.065c-0.098,-0.084 -0.209,-0.122 -0.333,-0.114c-0.124,0.008 -0.234,0.06 -0.331,0.157l-0.95,0.949c-0.165,0.165 -0.355,0.25 -0.571,0.255c-0.215,0.004 -0.396,-0.067 -0.542,-0.213c-0.044,-0.044 -0.066,-0.087 -0.067,-0.13c-0.001,-0.043 0.015,-0.082 0.049,-0.115c0.031,-0.032 0.068,-0.047 0.111,-0.047c0.033,0.001 0.08,0.028 0.142,0.079c0.097,0.079 0.207,0.114 0.33,0.105c0.123,-0.009 0.233,-0.061 0.329,-0.158l0.947,-0.947c0.111,-0.111 0.218,-0.183 0.322,-0.216c0.104,-0.034 0.234,-0.039 0.39,-0.016l0,0Z" style="fill:#00a109;fill-rule:nonzero;"/></g><g><path d="M37.768,38.48l3.548,3.548l0.538,-0.538c0.053,-0.053 0.101,-0.081 0.144,-0.083c0.043,-0.003 0.081,0.012 0.114,0.046c0.034,0.033 0.049,0.072 0.047,0.115c-0.003,0.043 -0.031,0.091 -0.084,0.143l-0.759,0.76l-3.993,-3.993l0.759,-0.76c0.053,-0.053 0.101,-0.08 0.145,-0.082c0.044,-0.001 0.083,0.014 0.116,0.048c0.032,0.031 0.047,0.069 0.045,0.113c-0.002,0.044 -0.029,0.093 -0.082,0.145l-0.538,0.538l0,0Z" style="fill:#e2090a;fill-rule:nonzero;"/><path d="M44.341,39.003l-3.547,-3.548l-0.536,0.536c-0.053,0.052 -0.101,0.08 -0.145,0.081c-0.044,0.002 -0.082,-0.013 -0.113,-0.045c-0.034,-0.033 -0.05,-0.072 -0.048,-0.116c0.002,-0.044 0.029,-0.092 0.082,-0.145l0.76,-0.759l3.993,3.993l-0.76,0.76c-0.053,0.052 -0.1,0.08 -0.144,0.083c-0.043,0.002 -0.081,-0.013 -0.114,-0.046c-0.032,-0.032 -0.047,-0.07 -0.045,-0.114c0.002,-0.044 0.029,-0.092 0.082,-0.145l0.535,-0.535Z" style="fill:#e2090a;fill-rule:nonzero;"/></g><g><path d="M35.612,54.511c0,-0.286 0.037,-0.59 0.112,-0.911c0.074,-0.32 0.217,-0.691 0.429,-1.111c0.211,-0.42 0.365,-0.674 0.462,-0.761c0.03,-0.027 0.062,-0.041 0.097,-0.041c0.045,0 0.083,0.015 0.114,0.045c0.031,0.029 0.047,0.066 0.047,0.108c0,0.025 -0.009,0.052 -0.027,0.082c-0.273,0.502 -0.468,0.957 -0.585,1.365c-0.117,0.408 -0.176,0.816 -0.176,1.224c0,0.41 0.059,0.819 0.176,1.227c0.117,0.408 0.312,0.861 0.585,1.361c0.018,0.03 0.027,0.057 0.027,0.082c0,0.043 -0.016,0.079 -0.047,0.11c-0.031,0.031 -0.069,0.047 -0.114,0.047c-0.035,0 -0.067,-0.014 -0.097,-0.041c-0.092,-0.085 -0.242,-0.332 -0.451,-0.742c-0.209,-0.411 -0.353,-0.774 -0.433,-1.09c-0.079,-0.315 -0.119,-0.634 -0.119,-0.954l0,0Z" style="fill:#f0b50c;fill-rule:nonzero;"/><path d="M40.323,54.514c0,0.286 -0.037,0.589 -0.112,0.909c-0.075,0.319 -0.218,0.69 -0.429,1.111c-0.211,0.422 -0.366,0.675 -0.463,0.759c-0.029,0.03 -0.062,0.045 -0.097,0.045c-0.044,0 -0.082,-0.016 -0.113,-0.047c-0.031,-0.031 -0.047,-0.067 -0.047,-0.11c0,-0.025 0.009,-0.052 0.026,-0.082c0.274,-0.5 0.469,-0.953 0.586,-1.361c0.117,-0.408 0.175,-0.816 0.175,-1.224c0,-0.41 -0.058,-0.819 -0.175,-1.227c-0.117,-0.408 -0.312,-0.863 -0.586,-1.365c-0.017,-0.03 -0.026,-0.057 -0.026,-0.082c0,-0.042 0.016,-0.079 0.047,-0.108c0.031,-0.03 0.069,-0.045 0.113,-0.045c0.035,0 0.068,0.014 0.097,0.041c0.092,0.084 0.243,0.332 0.452,0.742c0.209,0.411 0.353,0.774 0.432,1.089c0.08,0.316 0.12,0.635 0.12,0.955l0,0Z" style="fill:#f0b50c;fill-rule:nonzero;"/></g><g><path d="M48.188,7.486l3.547,3.548l0.538,-0.538c0.053,-0.053 0.101,-0.081 0.144,-0.083c0.043,-0.003 0.081,0.013 0.115,0.046c0.033,0.033 0.048,0.072 0.046,0.115c-0.003,0.043 -0.031,0.091 -0.083,0.143l-0.76,0.76l-3.993,-3.993l0.759,-0.76c0.053,-0.053 0.102,-0.08 0.146,-0.082c0.044,-0.001 0.082,0.014 0.116,0.048c0.031,0.032 0.046,0.069 0.044,0.113c-0.001,0.044 -0.029,0.093 -0.081,0.145l-0.538,0.538l0,0Z" style="fill:#000b9b;fill-rule:nonzero;"/><path d="M54.76,8.009l-3.547,-3.548l-0.536,0.536c-0.052,0.052 -0.101,0.08 -0.145,0.081c-0.044,0.002 -0.081,-0.013 -0.113,-0.045c-0.033,-0.033 -0.049,-0.072 -0.047,-0.116c0.001,-0.044 0.029,-0.092 0.081,-0.145l0.76,-0.759l3.993,3.993l-0.759,0.76c-0.053,0.052 -0.101,0.08 -0.144,0.083c-0.043,0.002 -0.082,-0.013 -0.115,-0.046c-0.032,-0.032 -0.047,-0.07 -0.045,-0.114c0.002,-0.044 0.029,-0.092 0.082,-0.145l0.535,-0.535Z" style="fill:#000b9b;fill-rule:nonzero;"/></g><g><path d="M50.142,23.942c0,-0.286 0.038,-0.589 0.112,-0.91c0.075,-0.321 0.218,-0.691 0.429,-1.111c0.212,-0.421 0.366,-0.674 0.463,-0.761c0.03,-0.028 0.062,-0.041 0.097,-0.041c0.044,0 0.082,0.014 0.113,0.044c0.031,0.03 0.047,0.066 0.047,0.108c0,0.025 -0.009,0.053 -0.026,0.083c-0.274,0.502 -0.469,0.957 -0.586,1.365c-0.117,0.408 -0.175,0.815 -0.175,1.223c0,0.411 0.058,0.82 0.175,1.227c0.117,0.408 0.312,0.862 0.586,1.362c0.017,0.03 0.026,0.057 0.026,0.082c0,0.042 -0.016,0.079 -0.047,0.11c-0.031,0.031 -0.069,0.047 -0.113,0.047c-0.035,0 -0.067,-0.014 -0.097,-0.041c-0.092,-0.085 -0.243,-0.332 -0.452,-0.743c-0.209,-0.41 -0.353,-0.773 -0.432,-1.089c-0.08,-0.316 -0.12,-0.634 -0.12,-0.955l0,0Z" style="fill:#f0b50c;fill-rule:nonzero;"/><path d="M54.853,23.946c0,0.286 -0.037,0.589 -0.112,0.908c-0.074,0.32 -0.217,0.69 -0.429,1.112c-0.211,0.421 -0.365,0.674 -0.462,0.759c-0.03,0.03 -0.062,0.045 -0.097,0.045c-0.045,0 -0.083,-0.016 -0.114,-0.047c-0.031,-0.031 -0.046,-0.068 -0.046,-0.11c0,-0.025 0.008,-0.052 0.026,-0.082c0.273,-0.5 0.468,-0.954 0.585,-1.362c0.117,-0.407 0.176,-0.815 0.176,-1.223c0,-0.41 -0.059,-0.819 -0.176,-1.227c-0.117,-0.408 -0.312,-0.863 -0.585,-1.365c-0.018,-0.03 -0.026,-0.058 -0.026,-0.083c0,-0.042 0.015,-0.078 0.046,-0.108c0.031,-0.03 0.069,-0.044 0.114,-0.044c0.035,0 0.067,0.013 0.097,0.041c0.092,0.084 0.242,0.332 0.451,0.742c0.209,0.41 0.353,0.773 0.433,1.089c0.08,0.316 0.119,0.634 0.119,0.955l0,0Z" style="fill:#f0b50c;fill-rule:nonzero;"/></g><path d="M56.006,36.411l0.138,0c0.139,0 0.258,0.05 0.356,0.149c0.098,0.1 0.147,0.218 0.147,0.355c0,0.146 -0.049,0.268 -0.149,0.365c-0.099,0.097 -0.217,0.146 -0.354,0.146l-0.138,0c-0.139,0 -0.258,-0.05 -0.356,-0.149c-0.099,-0.1 -0.148,-0.218 -0.148,-0.355c0,-0.147 0.051,-0.268 0.151,-0.365c0.101,-0.097 0.219,-0.146 0.353,-0.146Zm-0.545,2.104l0.985,0l-1.056,1.731c-0.052,0.084 -0.094,0.138 -0.125,0.16c-0.031,0.022 -0.067,0.034 -0.11,0.034c-0.059,0 -0.109,-0.019 -0.149,-0.056c-0.04,-0.038 -0.06,-0.082 -0.06,-0.135c0,-0.029 0.008,-0.068 0.023,-0.115l0.492,-1.619Z" style="fill:#000b9b;fill-rule:nonzero;"/><g><path d="M50.891,52.905c0.124,0.094 0.209,0.184 0.253,0.268c0.058,0.112 0.086,0.245 0.086,0.4l0,1.339c0,0.141 0.041,0.258 0.123,0.348c0.082,0.091 0.184,0.143 0.306,0.155c0.077,0.008 0.128,0.023 0.153,0.045c0.032,0.03 0.049,0.067 0.049,0.112c0,0.047 -0.017,0.085 -0.049,0.114c-0.032,0.028 -0.079,0.042 -0.142,0.042c-0.196,0 -0.36,-0.062 -0.492,-0.186c-0.177,-0.172 -0.265,-0.38 -0.265,-0.627l0,-1.342c0,-0.137 -0.041,-0.252 -0.123,-0.346c-0.082,-0.093 -0.186,-0.144 -0.313,-0.154c-0.07,-0.008 -0.118,-0.025 -0.146,-0.053c-0.027,-0.027 -0.041,-0.065 -0.041,-0.115c0,-0.047 0.014,-0.085 0.041,-0.112c0.028,-0.027 0.076,-0.045 0.146,-0.052c0.129,-0.01 0.234,-0.062 0.315,-0.155c0.081,-0.093 0.121,-0.208 0.121,-0.345l0,-1.343c0,-0.234 0.075,-0.428 0.224,-0.584c0.149,-0.155 0.328,-0.233 0.537,-0.233c0.06,0 0.106,0.015 0.138,0.045c0.032,0.03 0.049,0.067 0.049,0.112c0,0.045 -0.017,0.082 -0.049,0.112c-0.022,0.025 -0.073,0.041 -0.153,0.048c-0.124,0.013 -0.227,0.065 -0.307,0.157c-0.081,0.092 -0.122,0.206 -0.122,0.343l0,1.343c0,0.157 -0.025,0.283 -0.074,0.378c-0.05,0.096 -0.138,0.191 -0.265,0.286l0,0Z" style="fill:#00a109;fill-rule:nonzero;"/><path d="M55.841,52.905c-0.127,-0.095 -0.212,-0.184 -0.254,-0.269c-0.057,-0.109 -0.086,-0.241 -0.086,-0.395l0,-1.343c0,-0.139 -0.041,-0.255 -0.123,-0.347c-0.082,-0.092 -0.184,-0.143 -0.306,-0.153c-0.079,-0.007 -0.13,-0.022 -0.153,-0.045c-0.032,-0.032 -0.048,-0.07 -0.048,-0.115c0,-0.045 0.015,-0.082 0.046,-0.112c0.032,-0.03 0.078,-0.045 0.14,-0.045c0.199,0 0.363,0.064 0.493,0.19c0.176,0.169 0.265,0.378 0.265,0.627l0,1.343c0,0.137 0.041,0.252 0.124,0.345c0.084,0.093 0.189,0.145 0.316,0.155c0.067,0.007 0.115,0.025 0.143,0.052c0.029,0.027 0.043,0.065 0.043,0.112c0,0.05 -0.014,0.088 -0.043,0.115c-0.028,0.028 -0.076,0.045 -0.143,0.053c-0.13,0.01 -0.235,0.061 -0.317,0.154c-0.082,0.094 -0.123,0.209 -0.123,0.346l0,1.342c0,0.234 -0.075,0.429 -0.224,0.584c-0.149,0.156 -0.327,0.233 -0.534,0.233c-0.062,0 -0.108,-0.015 -0.14,-0.045c-0.031,-0.029 -0.046,-0.068 -0.046,-0.115c0,-0.045 0.015,-0.082 0.045,-0.112c0.024,-0.022 0.077,-0.037 0.156,-0.045c0.125,-0.012 0.227,-0.065 0.308,-0.158c0.081,-0.094 0.121,-0.209 0.121,-0.345l0,-1.339c0,-0.157 0.025,-0.284 0.075,-0.381c0.05,-0.097 0.138,-0.193 0.265,-0.287l0,0Z" style="fill:#00a109;fill-rule:nonzero;"/></g></svg>