<?xml version="1.0" encoding="UTF-8" standalone="no"?><!DOCTYPE svg PUBLIC "-//W3C//DTD SVG 1.1//EN" "http://www.w3.org/Graphics/SVG/1.1/DTD/svg11.dtd"><svg width="100%" height="100%" viewBox="0 0 1880 238" version="1.1" xmlns="http://www.w3.org/2000/svg" xmlns:xlink="http://www.w3.org/1999/xlink" xml:space="preserve" style="fill-rule:evenodd;clip-rule:evenodd;stroke-linejoin:round;stroke-miterlimit:1.41421;"><g id="Layer1"><path d="M139.125,60.891c-7.262,-7.134 -15.64,-12.772 -25.132,-16.913c-9.491,-4.141 -19.716,-6.211 -30.673,-6.211c-10.957,0 -21.246,2.07 -30.865,6.211c-9.62,4.141 -18.029,9.81 -25.227,17.009c-7.199,7.199 -12.868,15.608 -17.009,25.227c-4.141,9.619 -6.211,19.908 -6.211,30.865c0,10.957 2.07,21.245 6.211,30.865c4.141,9.619 9.81,17.996 17.009,25.131c7.198,7.135 15.607,12.773 25.227,16.914c9.619,4.141 19.908,6.211 30.865,6.211l0.573,0l0,-23.698l0,-9.556l0,-91.926c6.243,0.128 12.072,1.37 17.487,3.727c5.415,2.357 10.161,5.574 14.238,9.651l23.507,-23.507Zm-56.57,102.055l-2.866,0l0,-91.734c0.509,0 0.987,-0.032 1.433,-0.096c0.446,-0.064 0.924,-0.096 1.433,-0.096l0,91.926Zm-4.204,-0.191c-0.51,-0.127 -1.019,-0.191 -1.529,-0.191c-0.51,0 -0.956,-0.064 -1.338,-0.191l0,-90.588c1.019,-0.255 1.975,-0.382 2.867,-0.382l0,91.352Zm-4.396,-0.764l-2.867,-0.574l0,-88.677c0.638,-0.254 1.593,-0.509 2.867,-0.764l0,90.015Zm-4.204,-0.956l-2.867,-1.147l0,-85.81c1.274,-0.509 2.23,-0.828 2.867,-0.955l0,87.912Zm-4.396,-1.72c-0.51,-0.255 -0.987,-0.478 -1.433,-0.669c-0.446,-0.191 -0.924,-0.414 -1.434,-0.669l0,-81.988c0.51,-0.254 0.988,-0.477 1.434,-0.668c0.446,-0.192 0.923,-0.415 1.433,-0.669l0,84.663Zm-4.204,-2.102c-1.02,-0.382 -1.975,-0.956 -2.867,-1.72l0,-77.019l2.867,-1.72l0,80.459Zm-4.396,-2.676c-0.51,-0.255 -0.987,-0.573 -1.433,-0.955c-0.446,-0.383 -0.924,-0.765 -1.434,-1.147l0,-70.712l2.867,-2.294l0,75.108Zm-4.205,-3.44c-1.019,-0.637 -1.974,-1.529 -2.866,-2.675l0,-62.686c0.764,-0.892 1.72,-1.847 2.866,-2.866l0,68.227Zm-4.395,-4.395c-0.51,-0.638 -0.988,-1.243 -1.434,-1.816c-0.445,-0.573 -0.923,-1.179 -1.433,-1.816l0,-51.983c0.51,-0.637 0.988,-1.274 1.433,-1.911c0.446,-0.637 0.924,-1.274 1.434,-1.911l0,59.437Zm-4.205,-5.925c-1.146,-1.656 -2.102,-3.504 -2.866,-5.542l0,-36.312c0.382,-1.019 0.796,-1.975 1.242,-2.867c0.446,-0.891 0.987,-1.847 1.624,-2.866l0,47.587Zm-4.395,-9.365c-1.529,-4.332 -2.294,-9.109 -2.294,-14.333c0,-5.096 0.765,-9.938 2.294,-14.525l0,28.858Z" style="fill:#000b9b;fill-rule:nonzero;"/><path d="M249.398,147.275l0,-107.024l-32.681,0l0,107.024c0,3.058 -0.955,6.052 -2.867,8.982l0,-116.006l-1.337,0l0,117.726c-0.51,0.51 -0.988,0.988 -1.434,1.434c-0.446,0.446 -0.923,0.86 -1.433,1.242l0,-120.402l-1.529,0l0,121.166c-0.637,0.51 -1.593,0.956 -2.867,1.338l0,-122.504l-1.337,0l0,122.886c-1.275,0.255 -2.23,0.383 -2.867,0.383l0,-123.269l-1.529,0l0,123.269c-0.637,0 -1.593,-0.128 -2.867,-0.383l0,-122.886l-1.338,0l0,122.504c-0.509,-0.255 -0.987,-0.478 -1.433,-0.669c-0.446,-0.191 -0.924,-0.414 -1.433,-0.669l0,-121.166l-1.338,0l0,120.402c-1.147,-0.765 -2.166,-1.593 -3.058,-2.485l0,-117.917l-1.338,0l0,116.006c-1.783,-2.803 -2.675,-5.797 -2.675,-8.982l0,-107.024l-32.681,0l0,107.024c0,6.753 1.274,13.091 3.823,19.016c2.548,5.924 6.051,11.116 10.511,15.575c4.459,4.46 9.651,7.964 15.576,10.512c5.924,2.548 12.263,3.822 19.015,3.822c6.753,0 13.123,-1.274 19.112,-3.822c5.988,-2.548 11.212,-6.052 15.671,-10.512c4.459,-4.459 7.963,-9.651 10.511,-15.575c2.548,-5.925 3.823,-12.263 3.823,-19.016Z" style="fill:#000b9b;fill-rule:nonzero;"/><path d="M379.546,193.142l-64.023,-60.965l4.396,0c6.497,0 12.581,-1.179 18.251,-3.536c5.67,-2.357 10.607,-5.606 14.811,-9.747c4.205,-4.14 7.517,-9.014 9.938,-14.62c2.421,-5.606 3.631,-11.658 3.631,-18.156c0,-6.497 -1.21,-12.517 -3.631,-18.06c-2.421,-5.542 -5.733,-10.384 -9.938,-14.524c-4.204,-4.141 -9.141,-7.39 -14.811,-9.747c-5.67,-2.357 -11.754,-3.536 -18.251,-3.536l-53.321,0l0,152.891l1.338,0l0,-59.627l2.866,2.675l0,56.952l1.529,0l0,-55.614l2.867,2.676l0,52.938l1.338,0l0,-51.601l2.866,2.676l0,48.925l1.529,0l0,-47.587l2.867,2.867l0,44.72l1.338,0l0,-43.383l2.867,2.676l0,40.707l1.528,0l0,-39.369l2.867,2.675l0,36.694l1.338,0l0,-35.356l2.867,2.676l0,32.68l1.529,0l0,-31.343l2.866,2.676l0,28.667l1.338,0l0,-27.329l2.867,2.867l0,24.462l1.529,0l0,-23.125l2.866,2.676l0,20.449l1.338,0l0,-19.111l2.867,2.675l0,16.436l1.529,0l0,-15.098l2.867,2.676l0,12.422l1.337,0l0,-11.084l2.867,2.675l0,8.409l1.529,0l0,-7.071l2.867,2.867l0,4.204l1.337,0l0,-2.867l3.058,2.867l48.352,0Zm-115.433,0l0,-152.891l-2.102,0l0,152.891l2.102,0Zm69.757,-107.024c0,2.166 -0.51,4.269 -1.529,6.307l0,-12.422c1.019,1.784 1.529,3.822 1.529,6.115Zm-2.867,8.601c-0.764,1.019 -1.72,1.974 -2.867,2.866l0,-22.742c1.147,0.764 2.103,1.72 2.867,2.866l0,17.01Zm-4.204,3.822l-2.867,1.147l0,-26.948l2.867,1.147l0,24.654Zm-4.396,1.529c-0.51,0.127 -1.338,0.191 -2.484,0.191l-0.383,0l0,-28.094l0.383,0c0.509,0 0.955,0.032 1.337,0.096c0.383,0.063 0.765,0.095 1.147,0.095l0,27.712Zm-4.204,0.191l-2.867,0l0,-28.094l2.867,0l0,28.094Zm-4.396,0l-2.867,0l0,-28.094l2.867,0l0,28.094Zm-4.205,0l-2.866,0l0,-28.094l2.866,0l0,28.094Zm-4.395,0l-2.867,0l0,-28.094l2.867,0l0,28.094Zm-4.205,0l-2.866,0l0,-28.094l2.866,0l0,28.094Zm-4.395,0l-2.867,0l0,-28.094l2.867,0l0,28.094Zm-4.205,0l-2.867,0l0,-28.094l2.867,0l0,28.094Zm-4.395,0l-2.867,0l0,-28.094l2.867,0l0,28.094Zm-4.205,0l-2.867,0l0,-28.094l2.867,0l0,28.094Zm-4.396,0l-2.866,0l0,-28.094l2.866,0l0,28.094Zm-4.204,0l-2.867,0l0,-28.094l2.867,0l0,28.094Zm-4.396,0l-2.866,0l0,-28.094l2.866,0l0,28.094Z" style="fill:#000b9b;fill-rule:nonzero;"/><path d="M502.05,73.505l0,-33.254l-124.797,0l0,33.254l19.493,0l0,119.637l1.338,0l0,-119.637l2.867,0l0,119.637l1.529,0l0,-119.637l2.866,0l0,119.637l1.338,0l0,-119.637l2.867,0l0,119.637l1.529,0l0,-119.637l2.867,0l0,119.637l1.337,0l0,-119.637l2.867,0l0,119.637l1.529,0l0,-119.637l2.867,0l0,119.637l44.338,0l0,-119.637l35.165,0Z" style="fill:#000b9b;fill-rule:nonzero;"/><path d="M514.472,40.251l0,152.891l1.338,0l0,-119.637l2.867,0l0,119.637l1.529,0l0,-119.637l2.866,0l0,119.637l1.338,0l0,-119.637l2.867,0l0,119.637l1.529,0l0,-119.637l2.867,0l0,119.637l1.337,0l0,-119.637l2.867,0l0,119.637l1.529,0l0,-119.637l2.867,0l0,119.637l1.337,0l0,-119.637l2.867,0l0,119.637l1.529,0l0,-119.637l2.867,0l0,119.637l1.911,0l0,-152.891l-36.312,0Z" style="fill:#000b9b;fill-rule:nonzero;"/><path d="M675.963,54.776c-0.382,-0.51 -0.764,-0.956 -1.146,-1.338c-0.382,-0.382 -0.765,-0.764 -1.147,-1.147c-4.459,-4.459 -9.524,-7.803 -15.193,-10.033c-5.67,-2.23 -11.435,-3.345 -17.296,-3.345c-5.861,0 -11.626,1.115 -17.296,3.345c-5.67,2.23 -10.734,5.574 -15.194,10.033c-4.459,4.46 -7.803,9.524 -10.033,15.194c-2.23,5.67 -3.376,11.467 -3.44,17.391c-0.064,5.925 0.987,11.722 3.153,17.392c2.166,5.669 5.479,10.734 9.938,15.193l0.382,0.382l-21.213,21.214c0,-0.255 -0.096,-0.446 -0.287,-0.573c-0.191,-0.128 -0.414,-0.319 -0.669,-0.574l-23.316,23.316c0.51,0.51 0.924,0.988 1.243,1.434c0.318,0.445 0.732,0.923 1.242,1.433c4.587,4.587 9.747,7.995 15.48,10.224c5.733,2.23 11.594,3.345 17.582,3.345c5.989,0 11.85,-1.115 17.583,-3.345c5.733,-2.229 10.893,-5.637 15.48,-10.224c4.587,-4.587 8.027,-9.779 10.32,-15.576c2.294,-5.797 3.472,-11.722 3.536,-17.773c0.064,-6.052 -1.019,-11.945 -3.249,-17.679c-2.23,-5.733 -5.638,-10.893 -10.225,-15.48l-0.382,-0.382l21.405,-21.596c0.255,0.51 0.51,0.892 0.764,1.147l21.978,-21.978Zm-38.987,16.818l-8.982,8.982c1.019,-2.293 2.23,-4.141 3.631,-5.542c1.402,-1.402 3.185,-2.548 5.351,-3.44Zm6.88,-0.765l-16.627,16.627c-0.254,-1.529 -0.191,-2.93 0.192,-4.204l12.231,-12.232c0.637,-0.127 1.338,-0.222 2.102,-0.286c0.765,-0.064 1.465,-0.032 2.102,0.095Zm4.778,1.338l-20.067,20.067c-0.637,-0.892 -1.019,-1.847 -1.146,-2.867l18.155,-18.155c0.892,0.127 1.911,0.446 3.058,0.955Zm3.631,2.485l-21.404,21.404c-0.255,-0.382 -0.542,-0.796 -0.86,-1.242c-0.319,-0.446 -0.606,-0.796 -0.86,-1.051l20.831,-20.831c0.255,0.254 0.605,0.541 1.051,0.86c0.446,0.318 0.86,0.605 1.242,0.86Zm-40.707,46.631l-20.449,20.641c-0.51,-0.255 -0.956,-0.542 -1.338,-0.86c-0.382,-0.319 -0.764,-0.606 -1.147,-0.86l21.405,-21.405c0.765,1.019 1.274,1.847 1.529,2.484Zm1.72,4.396l-17.965,17.965c-0.637,-0.255 -1.178,-0.446 -1.624,-0.574c-0.446,-0.127 -0.924,-0.318 -1.433,-0.573l20.067,-20.067c0.254,0.51 0.414,1.019 0.477,1.529c0.064,0.51 0.223,1.083 0.478,1.72Zm0.382,1.72c0,0.637 -0.032,1.338 -0.095,2.102c-0.064,0.765 -0.159,1.529 -0.287,2.294l-12.04,11.849c-0.764,0.255 -1.529,0.382 -2.293,0.382c-0.637,0 -1.274,0 -1.912,0l16.627,-16.627Zm-1.337,7.071c-0.255,1.02 -0.701,1.943 -1.338,2.771c-0.637,0.829 -1.274,1.625 -1.911,2.389c-0.765,0.637 -1.561,1.274 -2.389,1.911c-0.828,0.637 -1.688,1.083 -2.58,1.338l8.218,-8.409Zm-47.588,49.69l0,9.555l107.406,0l0,-9.555l-107.406,0Z" style="fill:#000b9b;fill-rule:nonzero;"/><path d="M920.589,193.142l0,-33.254l-26.183,0l0,-119.637l-1.337,0l0,119.637l-2.867,0l0,-119.637l-1.529,0l0,119.637l-2.867,0l0,-119.637l-1.337,0l0,119.637l-2.867,0l0,-119.637l-1.529,0l0,119.637l-2.867,0l0,-119.637l-1.338,0l0,119.637l-2.866,0l0,-119.637l-1.529,0l0,119.637l-2.867,0l0,-119.637l-1.338,0l0,119.637l-2.866,0l0,-119.637l-1.529,0l0,119.637l-2.867,0l0,-119.637l-1.338,0l0,119.637l-2.867,0l0,-119.637l-1.528,0l0,119.637l-2.867,0l0,-119.637l-1.338,0l0,119.637l-2.867,0l0,-119.637l-1.529,0l0,119.637l-2.866,0l0,-119.637l-1.338,0l0,119.637l-2.867,0l0,-119.637l-1.529,0l0,119.637l-2.866,0l0,-119.637l-1.338,0l0,119.637l-2.867,0l0,-119.637l-1.338,0l0,119.637l-3.058,0l0,-119.637l-1.337,0l0,119.637l-0.574,0l0,33.254l96.895,0Zm-99.379,0l0,-152.891l-34.592,0l0,152.891l34.592,0Z" style="fill:#e2090a;fill-rule:nonzero;"/><path d="M1098.33,193.142l-84.855,-156.713l-81.223,156.713l38.605,0l16.245,-32.107l55.04,0l17.583,32.107l38.605,0Zm-83.135,-80.841l-3.44,0l1.72,-3.249l1.72,3.249Zm2.485,4.396l-8.027,0l1.529,-2.867l4.778,0l1.72,2.867Zm2.293,4.204l-12.422,0l1.338,-2.867l9.555,0l1.529,2.867Zm2.294,4.396l-17.01,0l1.529,-3.058l13.952,0l1.529,3.058Zm2.484,4.204l-21.596,0l1.338,-2.866l18.729,0l1.529,2.866Zm2.293,4.205l-26.182,0l1.529,-2.867l23.124,0l1.529,2.867Zm2.485,4.395l-30.769,0l1.528,-2.866l27.521,0l1.72,2.866Zm2.293,4.205l-35.165,0l1.338,-2.867l32.298,0l1.529,2.867Zm2.294,4.396l-39.752,0l1.529,-2.867l36.694,0l1.529,2.867Zm2.484,4.204l-44.338,0l1.337,-2.867l41.281,0l1.72,2.867Zm2.293,4.396l-48.925,0l1.529,-2.867l45.867,0l1.529,2.867Zm2.294,4.204l-53.321,0l1.529,-2.867l50.263,0l1.529,2.867Z" style="fill:#e2090a;fill-rule:nonzero;"/><path d="M1190.25,40.251l-1.72,0l-45.102,75.872l-1.72,-2.675l43.574,-73.197l-1.72,0l-42.619,71.668l-1.72,-2.867l41.09,-68.801l-1.72,0l-40.134,67.463l-1.72,-2.866l38.605,-64.597l-1.72,0l-37.65,63.259l-1.72,-2.867l35.93,-60.392l-1.529,0l-35.165,59.054l-1.72,-2.866l33.445,-56.188l-1.529,0l-32.681,54.85l-1.72,-2.867l30.961,-51.983l-1.72,0l-30.005,50.645l-1.72,-2.866l28.476,-47.779l-1.72,0l-27.521,46.25l-1.72,-2.676l25.992,-43.574l-1.72,0l-25.036,42.045l-1.72,-2.675l23.507,-39.37l-1.72,0l-22.552,37.841l-1.72,-2.867l20.832,-34.974l-1.529,0l-20.067,33.636l-1.72,-2.867l18.347,-30.769l-1.529,0l-17.583,29.432l-1.72,-2.867l15.863,-26.565l-1.72,0l-14.907,25.227l-1.72,-2.867l13.378,-22.36l-1.72,0l-12.423,21.023l-1.72,-2.867l10.894,-18.156l-1.72,0l-9.938,16.818l-1.72,-2.867l8.409,-13.951l-1.72,0l-7.454,12.423l-1.72,-2.676l5.734,-9.747l-1.529,0l-4.969,8.218l-1.72,-2.867l3.249,-5.351l-1.529,0l-2.485,4.014l-2.293,-4.014l-37.076,0l48.734,84.09l0,68.801l33.445,0l0,-75.299l46.249,-77.592Z" style="fill:#e2090a;fill-rule:nonzero;"/><path d="M1307.02,60.891c-7.262,-7.134 -15.64,-12.772 -25.131,-16.913c-9.492,-4.141 -19.717,-6.211 -30.674,-6.211c-10.957,0 -21.246,2.07 -30.865,6.211c-9.619,4.141 -18.028,9.81 -25.227,17.009c-7.199,7.199 -12.868,15.608 -17.009,25.227c-4.141,9.619 -6.211,19.908 -6.211,30.865c0,10.957 2.07,21.245 6.211,30.865c4.141,9.619 9.81,17.996 17.009,25.131c7.199,7.135 15.608,12.773 25.227,16.914c9.619,4.141 19.908,6.211 30.865,6.211l0.573,0l0,-23.698l0,-9.556l0,-91.926c6.243,0.128 12.072,1.37 17.487,3.727c5.415,2.357 10.161,5.574 14.238,9.651l23.507,-23.507Zm-56.57,102.055l-2.866,0l0,-91.734c0.509,0 0.987,-0.032 1.433,-0.096c0.446,-0.064 0.924,-0.096 1.433,-0.096l0,91.926Zm-4.204,-0.191c-0.51,-0.127 -1.019,-0.191 -1.529,-0.191c-0.51,0 -0.956,-0.064 -1.338,-0.191l0,-90.588c1.019,-0.255 1.975,-0.382 2.867,-0.382l0,91.352Zm-4.396,-0.764l-2.867,-0.574l0,-88.677c0.638,-0.254 1.593,-0.509 2.867,-0.764l0,90.015Zm-4.204,-0.956l-2.867,-1.147l0,-85.81c1.274,-0.509 2.23,-0.828 2.867,-0.955l0,87.912Zm-4.396,-1.72c-0.51,-0.255 -0.987,-0.478 -1.433,-0.669c-0.446,-0.191 -0.924,-0.414 -1.434,-0.669l0,-81.988c0.51,-0.254 0.988,-0.477 1.434,-0.668c0.446,-0.192 0.923,-0.415 1.433,-0.669l0,84.663Zm-4.204,-2.102c-1.02,-0.382 -1.975,-0.956 -2.867,-1.72l0,-77.019l2.867,-1.72l0,80.459Zm-4.396,-2.676c-0.51,-0.255 -0.987,-0.573 -1.433,-0.955c-0.446,-0.383 -0.924,-0.765 -1.434,-1.147l0,-70.712l2.867,-2.294l0,75.108Zm-4.205,-3.44c-1.019,-0.637 -1.974,-1.529 -2.866,-2.675l0,-62.686c0.764,-0.892 1.72,-1.847 2.866,-2.866l0,68.227Zm-4.395,-4.395c-0.51,-0.638 -0.988,-1.243 -1.434,-1.816c-0.445,-0.573 -0.923,-1.179 -1.433,-1.816l0,-51.983c0.51,-0.637 0.988,-1.274 1.433,-1.911c0.446,-0.637 0.924,-1.274 1.434,-1.911l0,59.437Zm-4.205,-5.925c-1.146,-1.656 -2.102,-3.504 -2.866,-5.542l0,-36.312c0.382,-1.019 0.796,-1.975 1.242,-2.867c0.446,-0.891 0.987,-1.847 1.624,-2.866l0,47.587Zm-4.395,-9.365c-1.529,-4.332 -2.294,-9.109 -2.294,-14.333c0,-5.096 0.765,-9.938 2.294,-14.525l0,28.858Z" style="fill:#f0b50c;fill-rule:nonzero;"/><path d="M1436.79,193.142l-64.023,-60.965l4.396,0c6.498,0 12.581,-1.179 18.251,-3.536c5.67,-2.357 10.607,-5.606 14.811,-9.747c4.205,-4.14 7.518,-9.014 9.938,-14.62c2.421,-5.606 3.631,-11.658 3.631,-18.156c0,-6.497 -1.21,-12.517 -3.631,-18.06c-2.42,-5.542 -5.733,-10.384 -9.938,-14.524c-4.204,-4.141 -9.141,-7.39 -14.811,-9.747c-5.67,-2.357 -11.753,-3.536 -18.251,-3.536l-53.321,0l0,152.891l1.338,0l0,-59.627l2.866,2.675l0,56.952l1.529,0l0,-55.614l2.867,2.676l0,52.938l1.338,0l0,-51.601l2.867,2.676l0,48.925l1.529,0l0,-47.587l2.866,2.867l0,44.72l1.338,0l0,-43.383l2.867,2.676l0,40.707l1.529,0l0,-39.369l2.866,2.675l0,36.694l1.338,0l0,-35.356l2.867,2.676l0,32.68l1.529,0l0,-31.343l2.866,2.676l0,28.667l1.338,0l0,-27.329l2.867,2.867l0,24.462l1.529,0l0,-23.125l2.867,2.676l0,20.449l1.337,0l0,-19.111l2.867,2.675l0,16.436l1.529,0l0,-15.098l2.867,2.676l0,12.422l1.337,0l0,-11.084l2.867,2.675l0,8.409l1.529,0l0,-7.071l2.867,2.867l0,4.204l1.338,0l0,-2.867l3.057,2.867l48.352,0Zm-115.432,0l0,-152.891l-2.103,0l0,152.891l2.103,0Zm69.756,-107.024c0,2.166 -0.51,4.269 -1.529,6.307l0,-12.422c1.019,1.784 1.529,3.822 1.529,6.115Zm-2.867,8.601c-0.764,1.019 -1.72,1.974 -2.866,2.866l0,-22.742c1.146,0.764 2.102,1.72 2.866,2.866l0,17.01Zm-4.204,3.822l-2.867,1.147l0,-26.948l2.867,1.147l0,24.654Zm-4.396,1.529c-0.509,0.127 -1.338,0.191 -2.484,0.191l-0.383,0l0,-28.094l0.383,0c0.509,0 0.955,0.032 1.338,0.096c0.382,0.063 0.764,0.095 1.146,0.095l0,27.712Zm-4.204,0.191l-2.867,0l0,-28.094l2.867,0l0,28.094Zm-4.396,0l-2.867,0l0,-28.094l2.867,0l0,28.094Zm-4.204,0l-2.867,0l0,-28.094l2.867,0l0,28.094Zm-4.396,0l-2.867,0l0,-28.094l2.867,0l0,28.094Zm-4.205,0l-2.866,0l0,-28.094l2.866,0l0,28.094Zm-4.395,0l-2.867,0l0,-28.094l2.867,0l0,28.094Zm-4.205,0l-2.866,0l0,-28.094l2.866,0l0,28.094Zm-4.395,0l-2.867,0l0,-28.094l2.867,0l0,28.094Zm-4.205,0l-2.866,0l0,-28.094l2.866,0l0,28.094Zm-4.395,0l-2.867,0l0,-28.094l2.867,0l0,28.094Zm-4.205,0l-2.867,0l0,-28.094l2.867,0l0,28.094Zm-4.396,0l-2.866,0l0,-28.094l2.866,0l0,28.094Z" style="fill:#f0b50c;fill-rule:nonzero;"/><path d="M1614.71,193.142l-84.854,-156.713l-81.224,156.713l38.605,0l16.245,-32.107l55.041,0l17.582,32.107l38.605,0Zm-83.134,-80.841l-3.44,0l1.72,-3.249l1.72,3.249Zm2.484,4.396l-8.027,0l1.529,-2.867l4.778,0l1.72,2.867Zm2.293,4.204l-12.422,0l1.338,-2.867l9.556,0l1.528,2.867Zm2.294,4.396l-17.009,0l1.529,-3.058l13.951,0l1.529,3.058Zm2.484,4.204l-21.596,0l1.338,-2.866l18.729,0l1.529,2.866Zm2.294,4.205l-26.183,0l1.529,-2.867l23.125,0l1.529,2.867Zm2.484,4.395l-30.769,0l1.529,-2.866l27.52,0l1.72,2.866Zm2.294,4.205l-35.165,0l1.337,-2.867l32.299,0l1.529,2.867Zm2.293,4.396l-39.752,0l1.529,-2.867l36.694,0l1.529,2.867Zm2.484,4.204l-44.338,0l1.338,-2.867l41.28,0l1.72,2.867Zm2.294,4.396l-48.925,0l1.529,-2.867l45.867,0l1.529,2.867Zm2.293,4.204l-53.321,0l1.529,-2.867l50.263,0l1.529,2.867Z" style="fill:#f0b50c;fill-rule:nonzero;"/><path d="M1735.12,73.505l0,-33.254l-103.202,0l0,152.891l1.338,0l0,-61.73l2.867,0l0,61.73l1.529,0l0,-61.73l2.866,0l0,61.73l1.338,0l0,-61.73l2.867,0l0,61.73l1.529,0l0,-61.73l2.867,0l0,61.73l1.337,0l0,-61.73l2.867,0l0,61.73l1.529,0l0,-61.73l2.867,0l0,61.73l1.337,0l0,-61.73l2.867,0l0,61.73l1.529,0l0,-61.73l2.867,0l0,61.73l1.338,0l0,-61.73l2.866,0l0,61.73l1.529,0l0,-61.73l2.867,0l0,61.73l1.338,0l0,-61.73l2.866,0l0,61.73l1.529,0l0,-61.73l2.867,0l0,61.73l1.338,0l0,-61.73l2.867,0l0,61.73l1.528,0l0,-61.73l2.867,0l0,61.73l1.338,0l0,-61.73l13.951,0l0,-30.004l-13.951,0l0,-27.903l41.663,0Zm-104.348,119.637l0,-152.891l-4.014,0l0,152.891l4.014,0Zm61.347,-91.734l-2.867,0l0,-27.903l2.867,0l0,27.903Zm-4.395,0l-2.867,0l0,-27.903l2.867,0l0,27.903Zm-4.205,0l-2.867,0l0,-27.903l2.867,0l0,27.903Zm-4.396,0l-2.866,0l0,-27.903l2.866,0l0,27.903Zm-4.204,0l-2.867,0l0,-27.903l2.867,0l0,27.903Zm-4.396,0l-2.866,0l0,-27.903l2.866,0l0,27.903Zm-4.204,0l-2.867,0l0,-27.903l2.867,0l0,27.903Zm-4.396,0l-2.867,0l0,-27.903l2.867,0l0,27.903Zm-4.204,0l-2.867,0l0,-27.903l2.867,0l0,27.903Zm-4.396,0l-2.867,0l0,-27.903l2.867,0l0,27.903Zm-4.204,0l-2.867,0l0,-27.903l2.867,0l0,27.903Zm-4.396,0l-2.867,0l0,-27.903l2.867,0l0,27.903Zm-4.205,0l-2.866,0l0,-27.903l2.866,0l0,27.903Zm-4.395,0l-2.867,0l0,-27.903l2.867,0l0,27.903Z" style="fill:#f0b50c;fill-rule:nonzero;"/><path d="M1875.39,73.505l0,-33.254l-124.797,0l0,33.254l19.494,0l0,119.637l1.337,0l0,-119.637l2.867,0l0,119.637l1.529,0l0,-119.637l2.867,0l0,119.637l1.337,0l0,-119.637l2.867,0l0,119.637l1.529,0l0,-119.637l2.867,0l0,119.637l1.338,0l0,-119.637l2.866,0l0,119.637l1.529,0l0,-119.637l2.867,0l0,119.637l44.338,0l0,-119.637l35.165,0Z" style="fill:#f0b50c;fill-rule:nonzero;"/></g></svg>