<?xml version="1.0" encoding="UTF-8" standalone="no"?><!DOCTYPE svg PUBLIC "-//W3C//DTD SVG 1.1//EN" "http://www.w3.org/Graphics/SVG/1.1/DTD/svg11.dtd"><svg width="100%" height="100%" viewBox="0 0 600 536" version="1.1" xmlns="http://www.w3.org/2000/svg" xmlns:xlink="http://www.w3.org/1999/xlink" xml:space="preserve" style="fill-rule:evenodd;clip-rule:evenodd;stroke-miterlimit:10;"><rect id="Artboard1" x="0" y="0" width="599.933" height="535.475" style="fill:none;"/><clipPath id="_clip1"><rect x="0" y="0" width="599.933" height="535.475"/></clipPath><g clip-path="url(#_clip1)"><g id="Composition-lines"><path d="M-30.067,19.222l85,97l23,-97l3,95l29,-54l10,70l48,-45l5,78c0,0 46,-71 43,-70c-3,1 18,91 18,91l38,-79l42,54l42,-67l18,50l29,-73c0,0 32,38 32,41c0,3 13,-97 13,-97l36,75l31,-107l21,92l33,-121l20,109l28,-49l-6,709l-654,16l13,-718Z" style="fill:#fff;fill-rule:nonzero;stroke:#e7e7dc;stroke-width:1px;"/><path d="M132.676,430.518c0,0 -16.055,-128.438 -27.293,-195.869c-11.239,-67.43 6.422,-102.75 32.109,-141.282c25.688,-38.531 27.293,-93.118 57.798,-93.118c30.504,0 61.008,-4.816 75.457,64.22c14.45,69.035 1.606,102.75 46.559,102.75c44.953,0 85.091,-12.844 88.302,-30.504c3.211,-17.66 57.797,-3.211 35.32,36.926c-22.477,40.137 -77.064,40.137 -158.942,28.899c0,0 -48.165,150.915 -36.926,211.923c11.238,61.008 6.422,144.493 6.422,144.493l-147.704,19.266l28.898,-147.704Z" style="fill:#fff;fill-rule:nonzero;stroke:#e7e7dc;stroke-width:1px;"/><path d="M381.577,395.811l28.295,-20.372l-29.426,-11.317" style="fill:#fff;fill-rule:nonzero;stroke:#e7e7dc;stroke-width:1px;"/><path d="M375.918,313.191l53.193,-11.317l-40.744,-29.427" style="fill:#fff;fill-rule:nonzero;stroke:#e7e7dc;stroke-width:1px;"/><path d="M-7.067,382.222c7.966,-6.128 78,-53 91,-7c0,0 88,-31 86,49c0,0 78,-8 85,62c0,0 39,30 18,79c-21,49 -305,48 -314,38c-9,-10 8,-201 34,-221" style="fill:#fff;fill-rule:nonzero;"/><path d="M-7.067,382.222c7.966,-6.128 78,-53 91,-7c0,0 88,-31 86,49c0,0 78,-8 85,62c0,0 39,30 18,79c-21,49 -305,48 -314,38c-9,-10 8,-201 34,-221Z" style="fill:none;stroke:#e7e7dc;stroke-width:1px;"/><path d="M511.732,193.222l2.264,46.403l39.612,-40.744" style="fill:#fff;fill-rule:nonzero;stroke:#e7e7dc;stroke-width:1px;"/><path d="M201.933,72.222c0,0 -15,7 -5,12c10,5 19,-12 5,-12Z" style="fill:#fff;fill-rule:nonzero;stroke:#e7e7dc;stroke-width:1px;"/><path d="M238.933,74.222c-5.985,1.088 -12,15 0,15c12,0 11,-17 0,-15" style="fill:#fff;fill-rule:nonzero;"/><path d="M238.933,74.222c-5.985,1.088 -12,15 0,15c12,0 11,-17 0,-15Z" style="fill:none;stroke:#e7e7dc;stroke-width:1px;"/><path d="M202.933,109.222c0,0 -12,9 -8,18c4,9 35,3 43,6c8,3 16,-37 -35,-24Z" style="fill:#fff;fill-rule:nonzero;stroke:#e7e7dc;stroke-width:1px;"/><path d="M563.794,384.493c39.612,-79.225 -21.292,-114.273 -21.292,-114.273c0,0 -49.062,-41.792 -79.951,3.634c-30.89,45.426 -32.706,110.84 -3.634,119.925c29.072,9.085 14.536,32.708 -5.451,41.793c-19.987,9.085 -56.329,-5.451 -69.049,19.987c-12.719,25.44 -39.662,72.652 -36.028,99.907c0,0 -56.14,15.771 -94.621,-9.128c0,0 10.716,-37.615 -1.132,-31.69c-6.79,3.395 -4.527,12.449 -4.527,18.109c0,5.658 -37.349,1.132 -33.953,-22.636c0,0 -33.954,36.217 11.318,52.061c45.271,15.846 99.287,64.512 138.899,52.063c39.612,-12.45 61.343,-116.574 61.343,-116.574c0,0 -23.767,201.458 -38.481,279.551" style="fill:#fff;fill-rule:nonzero;stroke:#e7e7dc;stroke-width:1px;"/><path d="M141.933,148.222c0,0 21,61 -18,101c-39,40 -33,31 -21,50c12,19 71,24 55,39c-16,15 -47,32 -78,0c-31,-32 30,-300 62,-190Z" style="fill:#fff;fill-rule:nonzero;stroke:#e7e7dc;stroke-width:1px;"/><path d="M501.933,3.722c0,33.965 -27.534,61.5 -61.5,61.5c-33.966,0 -61.5,-27.535 -61.5,-61.5c0,-33.965 27.534,-61.5 61.5,-61.5c33.966,0 61.5,27.535 61.5,61.5Z" style="fill:none;stroke:#e7e7dc;stroke-width:1px;"/><path d="M-33.067,318.222c0,0 123,-101 185,41c62,142 25,194 -16,210l1,35c0,0 139,6 189,89l-401,15l42,-390Z" style="fill:#fff;fill-rule:nonzero;stroke:#e7e7dc;stroke-width:1px;"/><path d="M324.933,19.222l-61,0c0,0 -3,-31 17,-26c0,0 36,-39 51,-2c0,0 62,28 -7,28Z" style="fill:#fff;fill-rule:nonzero;stroke:#e7e7dc;stroke-width:1px;"/></g><g id="ground"><rect x="-12.067" y="263.555" width="611.001" height="431.667" style="fill:#575756;fill-rule:nonzero;"/><path d="M598.048,411.822l-5.217,2.612l-16.278,-3.476l17.556,13.513l-9.171,2.254l-0.617,5.846l-10.001,-6.143l-5.843,1.867l-8.951,6.599l3.165,12.658l2.534,-2.169l-3.519,5.611l4.154,9.56l-10.276,4.112l-6.671,-5.257l3.971,5.05l-1.149,5.73l-3.988,12.43l-13.81,-15.638l1.287,11.796l-9.471,-2.504l2.892,7.445l9.027,15.508l-15.638,-5.517l-4.934,2.733l-2.274,2.987l-0.056,5.271l-4.62,3.809l0.086,10.433l-8.372,-7.515l5.656,9.333l-9.502,1.307l-2.565,3.613l-7.956,-0.346l2.025,13.419l-12.823,-12.173l4.984,12.383l-5.911,-2.603l-2.267,6.527l0.375,10.081l-10.17,-4.018l3.368,13.953l-7.702,-4.888l2.714,9.775l-8.607,-1.992l-4.601,7.178l-9.688,-6.135l1.584,6.601l-5.898,0.638l2.487,7.882l-11.04,-0.736l5.274,10.217l-5.068,0.997l-10.923,-8.715l-6.39,4.51l0.372,7.454l-6.911,-5.135l-2.305,7.934l-2.419,4.975l-4.4,2.516l-1.101,8.662l-5.99,-11.012l-9.43,2.345l-5.632,6.55l0.248,7.873l-6.434,-5.486l0.226,-2.172l-9.333,3.424l-4.658,-0.844l-8.188,1.662l0.889,6.312l-3.933,5.223l-6.309,-11.007l-3.678,12.128l-5.453,1.358l-6.505,-9.582l-0.628,18.336l-6.153,-13.134l-4.983,4.506l-3.048,-9.186l-0.917,-1.511l-10.667,0.107l-3.345,2.382l-3.088,-7.741l-3.343,-0.602l-1.997,-4.032l-11.814,4.743l-1.942,-0.331l-3.475,-13.845l-3.201,-0.233l-5.466,-1.559l-9.33,9.523l1.656,-11.961l-8.189,1.557l-5.156,0.019l0.09,-0.458l-8.681,0.078l-3.88,-2.905l-5.567,0.597l3.722,-15.407l-5.763,3.892l-3.878,-8.372l-9.016,5.98l-3.373,-11.166l-8.024,14.057l3.845,-12.289l-8.136,0.074l-1.686,2.548l-14.406,7.813l4.514,-19.947l-3.155,0.8l-11.6,9.975l-2.692,-8.067l-2.195,-2.367l-9.514,-6.378l1.333,1.596l-7.002,-3.743l-3.125,-6.589l-6.511,9.346l-5.044,-2.716l0.748,-11.411l-11.521,-2.991l0.685,17.517l-10.063,0.6l-0.903,-6.293l-12.69,5.454l1.07,-4.734l-3.746,-2.258l-5.196,-5.247l-1.02,14.724l-9.471,-5.647l-2.798,-10.955l-5.522,7.052l-4.921,-0.941l-7.44,1.837l-7.482,9.826l-1.22,-15.568l-4.807,-3.367l-6.823,-2.887l-0.696,14.144l-7.729,-0.721l-7.748,-7.79l0.331,12.123l-5.453,-1.032l-3.668,0.929l-2.109,7.684l-12.837,-4.834l0.983,-8.085l-3.467,1.96l0,9.39l1.683,0.947l-1.683,0.164l0,62.207l0.631,2.4l-0.631,0.935l0,53.4l5.095,3.126l-5.095,1.278l0,7.483l612,0l0,-287.323l-10.572,-7.233l8.687,11.156Z" style="fill-rule:nonzero;"/></g><g id="Sky"><rect x="-12.067" y="-96.778" width="611.122" height="317" style="fill:#868686;fill-rule:nonzero;"/><path d="M534.433,77.222c0,46.116 -37.384,83.5 -83.5,83.5c-46.116,0 -83.5,-37.384 -83.5,-83.5c0,-46.116 37.384,-83.5 83.5,-83.5c46.116,0 83.5,37.384 83.5,83.5" style="fill:#d9d9d9;fill-rule:nonzero;"/><path d="M192.448,81.901c0.881,-5.419 5.569,-9.561 11.238,-9.561c1.656,0 3.227,0.361 4.646,0.997c1.987,-7.353 8.7,-12.764 16.68,-12.764c5.14,0 9.755,2.247 12.921,5.809c5.099,-3.209 11.129,-5.073 17.6,-5.073c8.582,0 16.397,3.267 22.278,8.623c3.318,-8.56 11.205,-14.841 20.673,-15.837c1.488,-8.03 8.525,-14.113 16.986,-14.113c9.544,0 17.283,7.738 17.283,17.282c0,0.642 -0.038,1.275 -0.107,1.899c2.669,-0.989 5.553,-1.531 8.565,-1.531c3.242,0 6.334,0.632 9.168,1.77c3.672,-20.244 21.377,-35.6 42.679,-35.6c23.963,0 43.39,19.427 43.39,43.39c0,5.165 -0.906,10.116 -2.562,14.709l-241.438,0Z" style="fill:#575756;fill-rule:nonzero;"/><path d="M236.02,22.147c-1.4,0 -2.739,0.255 -3.987,0.699c0.01,-0.232 0.017,-0.465 0.017,-0.699c0,-8.144 -6.602,-14.746 -14.746,-14.746c-8.144,0 -14.746,6.602 -14.746,14.746c0,0.147 0.006,0.292 0.011,0.438c-2.202,-1.696 -4.958,-2.707 -7.952,-2.707c-3.801,0 -7.221,1.627 -9.606,4.222c-1.719,-2.145 -4.114,-3.723 -6.865,-4.409c1.785,-2.139 2.859,-4.891 2.859,-7.895c0,-6.813 -5.523,-12.336 -12.335,-12.336c-2.161,0 -4.191,0.558 -5.957,1.534c-4.731,-4.797 -11.303,-7.772 -18.573,-7.772c-14.409,0 -26.09,11.68 -26.09,26.089c0,1.435 0.121,2.84 0.343,4.211c-1.724,-0.523 -3.552,-0.808 -5.447,-0.808c-2.987,0 -5.807,0.703 -8.311,1.947c-1.778,-4.146 -5.893,-7.051 -10.689,-7.051c-2.504,0 -4.816,0.799 -6.714,2.144c-3.998,-7.036 -11.555,-11.786 -20.227,-11.786c-12.842,0 -23.253,10.411 -23.253,23.254l203.825,0c-1.274,-5.207 -5.958,-9.075 -11.557,-9.075" style="fill:#575756;fill-rule:nonzero;"/></g><g id="Backdrop"><path d="M35.434,87.722c10.667,4.667 24,-2 24,-2c-16.667,0 -28,-10.667 -28,-10.667c8.666,3.333 24,-3.333 24,-3.333c-9.334,2 -24,-8.667 -24,-8.667c3.561,0.612 7.214,0.569 10.744,-0.225c1.539,-0.346 3.043,-0.824 4.543,-1.309c-1.356,0.438 -12.288,-4.799 -15.932,-9.503c7.866,4.156 27.312,-0.296 27.312,-0.296c-20.667,-5.334 -31.334,-20 -31.334,-20c6.667,8 27.333,7.333 27.333,7.333c-20.667,-11.333 -33.999,-45.333 -33.999,-45.333c-4.667,13.333 -32.667,47.333 -32.667,47.333c10,0.666 25.333,-8.667 25.333,-8.667c-6,23.333 -37.333,23.334 -37.333,23.334c0,0 20.667,6.666 36.667,0.666c0,0 -8.667,18 -34,20c0,0 22,0.667 34.666,-1.999c0,0 -20.834,25.667 -42.167,15.833c0,0 22.667,12.333 44.667,2.833c0,0 16.166,11.834 34.833,9.334c0,0 -12.499,-4.5 -14.666,-14.667" style="fill:#3c3c3b;fill-rule:nonzero;"/><path d="M150.107,169.102c8.146,4.859 18.327,-2.083 18.327,-2.083c-12.727,0 -21.382,-11.107 -21.382,-11.107c6.618,3.47 18.327,-3.471 18.327,-3.471c-7.127,2.082 -18.327,-9.025 -18.327,-9.025c2.72,0.638 5.51,0.593 8.205,-0.234c1.175,-0.36 2.324,-0.857 3.469,-1.362c-1.036,0.456 -9.383,-4.998 -12.165,-9.896c6.005,4.327 20.855,-0.309 20.855,-0.309c-15.782,-5.554 -23.927,-20.825 -23.927,-20.825c5.091,8.33 20.871,7.636 20.871,7.636c-15.781,-11.801 -25.961,-47.205 -25.961,-47.205c-3.564,13.884 -24.945,49.287 -24.945,49.287c7.636,0.694 19.344,-9.024 19.344,-9.024c-4.581,24.296 -28.507,24.296 -28.507,24.296c0,0 15.781,6.942 27.999,0.695c0,0 -6.618,18.743 -25.963,20.825c0,0 16.799,0.695 26.471,-2.082c0,0 -15.909,26.727 -32.199,16.488c0,0 17.309,12.842 34.108,2.95c0,0 12.345,12.321 26.599,9.718c0,0 -9.544,-4.686 -11.199,-15.272" style="fill:#3c3c3b;fill-rule:nonzero;"/><path d="M41.432,67.052c9.273,-7.418 23.522,-6.313 12,-38c0,0 12.667,12 16.667,22.667c4,10.666 17.333,17.333 26,18c0,0 -12.667,8 -23.334,-0.667c0,0 8.667,10.667 28.667,12.667c0,0 -14,8.666 -28,1.333c0,0 14,26.667 35.333,20.667c0,0 -14.666,11.333 -33.333,0c0,0 6,26 48,19.333c0,0 -36.667,16 -57.333,-2c0,0 -14.667,14 -32,5.333c0,0 22.666,-8 26,-24c0,0 -11.334,6.667 -23.334,5.334c0,0 24,-12 24.667,-24.667c0,0 -12.666,7.334 -19.333,4.667c0,0 15.333,-9.334 18.666,-17.334c0,0 -8.666,0.667 -19.333,-3.333" style="fill:#3c3c3b;fill-rule:nonzero;"/><path d="M178.137,127.046c5.952,-5.205 15.097,-4.43 7.702,-26.663c0,0 8.129,8.42 10.696,15.904c2.567,7.485 11.125,12.162 16.687,12.63c0,0 -8.129,5.613 -14.975,-0.468c0,0 5.562,7.485 18.398,8.888c0,0 -8.986,6.081 -17.97,0.935c0,0 8.985,18.712 22.676,14.502c0,0 -9.412,7.952 -21.393,0c0,0 3.851,18.242 30.806,13.564c0,0 -23.533,11.227 -36.796,-1.403c0,0 -9.413,9.823 -20.537,3.742c0,0 14.547,-5.612 16.686,-16.839c0,0 -7.273,4.677 -14.975,3.742c0,0 15.403,-8.42 15.831,-17.307c0,0 -8.129,5.146 -12.408,3.274c0,0 9.841,-6.549 11.98,-12.162c0,0 -5.562,0.468 -12.408,-2.339" style="fill:#3c3c3b;fill-rule:nonzero;"/><path d="M237.629,144.778c6.574,-5.259 18.214,-7.781 10.045,-30.245c0,0 7.442,11.812 10.278,19.374c2.836,7.562 12.289,12.288 18.434,12.761c0,0 -8.981,5.672 -16.543,-0.472c0,0 6.144,7.562 20.323,8.98c0,0 -9.926,6.144 -19.851,0.945c0,0 9.926,18.906 25.05,14.652c0,0 -10.397,8.035 -23.631,0c0,0 4.253,18.432 34.029,13.706c0,0 -25.995,11.343 -40.647,-1.418c0,0 -10.397,9.925 -22.686,3.781c0,0 16.07,-5.671 18.433,-17.014c0,0 -8.035,4.725 -16.542,3.781c0,0 17.015,-8.508 17.487,-17.488c0,0 -8.98,5.199 -13.706,3.309c0,0 10.87,-6.617 13.233,-12.289c0,0 -6.144,0.472 -13.706,-2.363" style="fill:#3c3c3b;fill-rule:nonzero;"/><path d="M392.263,104.107c9.273,-8.341 23.523,-7.099 12,-42.724c0,0 12.667,13.491 16.667,25.484c4,11.993 17.334,19.488 26.001,20.238c0,0 -12.667,8.994 -23.334,-0.75c0,0 8.666,11.993 28.666,14.242c0,0 -14,9.742 -28,1.498c0,0 14.001,29.983 35.334,23.237c0,0 -14.666,12.742 -33.333,0c0,0 5.999,29.231 47.999,21.736c0,0 -36.666,17.989 -57.333,-2.248c0,0 -14.666,15.74 -31.999,5.995c0,0 22.666,-8.994 25.999,-26.982c0,0 -11.333,7.494 -23.333,5.995c0,0 24,-13.492 24.666,-27.732c0,0 -12.666,8.245 -19.332,5.247c0,0 15.332,-10.494 18.666,-19.488c0,0 -8.667,0.749 -19.334,-3.748" style="fill:#3c3c3b;fill-rule:nonzero;"/><path d="M163.113,156.64c-4.303,3.293 -9.681,-1.412 -9.681,-1.412c6.723,0 11.295,-7.527 11.295,-7.527c-3.496,2.352 -9.681,-2.352 -9.681,-2.352c3.764,1.412 9.681,-6.115 9.681,-6.115c-1.437,0.432 -2.911,0.401 -4.335,-0.159c-0.62,-0.244 -1.227,-0.581 -1.832,-0.924c0.547,0.309 4.957,-3.386 6.427,-6.706c-3.173,2.933 -11.017,-0.209 -11.017,-0.209c8.336,-3.763 12.639,-14.113 12.639,-14.113c-2.689,5.645 -11.025,5.175 -11.025,5.175c8.336,-7.997 14.186,-36.576 14.186,-36.576c1.883,9.408 12.706,37.987 12.706,37.987c-4.034,0.47 -10.219,-6.116 -10.219,-6.116c2.42,16.465 15.059,16.465 15.059,16.465c0,0 -8.336,4.705 -14.79,0.471c0,0 3.495,12.702 13.715,14.113c0,0 -8.875,0.471 -13.984,-1.411c0,0 8.404,18.113 17.009,11.174c0,0 -9.143,8.702 -18.018,1.999c0,0 -6.521,8.35 -14.051,6.586c0,0 5.042,-3.176 5.916,-10.35" style="fill:#3c3c3b;fill-rule:nonzero;"/><path d="M231.045,168.44c4.543,3.511 10.222,-1.505 10.222,-1.505c-7.098,0 -11.926,-8.025 -11.926,-8.025c3.691,2.508 10.222,-2.508 10.222,-2.508c-3.975,1.505 -10.222,-6.52 -10.222,-6.52c1.517,0.461 3.073,0.429 4.577,-0.169c0.655,-0.26 1.295,-0.62 1.934,-0.984c-0.578,0.329 -5.233,-3.611 -6.785,-7.15c3.35,3.127 11.632,-0.223 11.632,-0.223c-8.802,-4.012 -13.345,-15.046 -13.345,-15.046c2.839,6.018 11.641,5.517 11.641,5.517c-8.802,-8.526 -14.48,-34.106 -14.48,-34.106c-1.988,10.031 -13.913,35.61 -13.913,35.61c4.258,0.502 10.789,-6.52 10.789,-6.52c-2.555,17.554 -15.9,17.554 -15.9,17.554c0,0 8.802,5.016 15.616,0.502c0,0 -3.69,13.542 -14.48,15.046c0,0 9.37,0.503 14.764,-1.504c0,0 -8.873,19.31 -17.959,11.912c0,0 9.654,9.279 19.024,2.132c0,0 6.885,8.902 14.835,7.021c0,0 -5.323,-3.386 -6.246,-11.034" style="fill:#3c3c3b;fill-rule:nonzero;"/><path d="M373.746,179.721c-6.584,4.667 -14.814,-2 -14.814,-2c10.288,0 17.284,-10.667 17.284,-10.667c-5.35,3.333 -14.815,-3.333 -14.815,-3.333c5.761,2 14.815,-8.667 14.815,-8.667c-2.199,0.612 -4.454,0.569 -6.632,-0.225c-0.95,-0.346 -1.879,-0.824 -2.805,-1.309c0.838,0.438 7.585,-4.799 9.834,-9.503c-4.855,4.156 -16.857,-0.296 -16.857,-0.296c12.756,-5.334 19.34,-20 19.34,-20c-4.115,8 -16.871,7.333 -16.871,7.333c12.756,-11.333 20.986,-45.333 20.986,-45.333c2.881,13.333 20.164,47.333 20.164,47.333c-6.172,0.666 -15.637,-8.667 -15.637,-8.667c3.703,23.333 23.045,23.334 23.045,23.334c0,0 -12.758,6.666 -22.634,0.666c0,0 5.35,18 20.988,20c0,0 -13.58,0.667 -21.399,-1.999c0,0 12.861,25.667 26.029,15.833c0,0 -13.992,12.333 -27.572,2.833c0,0 -9.978,11.834 -21.502,9.334c0,0 7.715,-4.5 9.053,-14.667" style="fill:#3c3c3b;fill-rule:nonzero;"/><path d="M441.246,161.221c-6.584,4.667 -14.814,-2 -14.814,-2c10.288,0 17.284,-10.667 17.284,-10.667c-5.35,3.333 -14.815,-3.333 -14.815,-3.333c5.761,2 14.815,-8.667 14.815,-8.667c-2.199,0.612 -4.454,0.569 -6.632,-0.225c-0.95,-0.346 -1.879,-0.824 -2.805,-1.309c0.838,0.438 7.585,-4.799 9.834,-9.503c-4.855,4.156 -16.857,-0.296 -16.857,-0.296c12.756,-5.334 19.34,-20 19.34,-20c-4.115,8 -16.871,7.333 -16.871,7.333c12.756,-11.333 20.986,-45.333 20.986,-45.333c2.881,13.333 20.164,47.333 20.164,47.333c-6.172,0.666 -15.637,-8.667 -15.637,-8.667c3.703,23.333 23.045,23.334 23.045,23.334c0,0 -12.758,6.666 -22.634,0.666c0,0 5.35,18 20.988,20c0,0 -13.58,0.667 -21.399,-1.999c0,0 12.861,25.667 26.029,15.833c0,0 -13.992,12.333 -27.572,2.833c0,0 -9.978,11.834 -21.502,9.334c0,0 7.715,-4.5 9.053,-14.667" style="fill:#3c3c3b;fill-rule:nonzero;"/><path d="M512.746,130.721c-6.584,4.667 -14.814,-2 -14.814,-2c10.288,0 17.284,-10.667 17.284,-10.667c-5.35,3.333 -14.815,-3.333 -14.815,-3.333c5.761,2 14.815,-8.667 14.815,-8.667c-2.199,0.612 -4.454,0.569 -6.632,-0.225c-0.95,-0.346 -1.879,-0.824 -2.805,-1.309c0.838,0.438 7.585,-4.799 9.834,-9.503c-4.855,4.156 -16.857,-0.296 -16.857,-0.296c12.756,-5.334 19.34,-20 19.34,-20c-4.115,8 -16.871,7.333 -16.871,7.333c12.756,-11.333 20.986,-45.333 20.986,-45.333c2.881,13.333 20.164,47.333 20.164,47.333c-6.172,0.666 -15.637,-8.667 -15.637,-8.667c3.703,23.333 23.045,23.334 23.045,23.334c0,0 -12.758,6.666 -22.634,0.666c0,0 5.35,18 20.988,20c0,0 -13.58,0.667 -21.399,-1.999c0,0 12.861,25.667 26.029,15.833c0,0 -13.992,12.333 -27.572,2.833c0,0 -9.978,11.834 -21.502,9.334c0,0 7.715,-4.5 9.053,-14.667" style="fill:#3c3c3b;fill-rule:nonzero;"/><path d="M563.746,141.221c-6.584,4.667 -14.814,-2 -14.814,-2c10.288,0 17.284,-10.667 17.284,-10.667c-5.35,3.333 -14.815,-3.333 -14.815,-3.333c5.761,2 14.815,-8.667 14.815,-8.667c-2.199,0.612 -4.454,0.569 -6.632,-0.225c-0.95,-0.346 -1.879,-0.824 -2.805,-1.309c0.838,0.438 7.585,-4.799 9.834,-9.503c-4.855,4.156 -16.857,-0.296 -16.857,-0.296c12.756,-5.334 19.34,-20 19.34,-20c-4.115,8 -16.871,7.333 -16.871,7.333c12.756,-11.333 20.986,-45.333 20.986,-45.333c2.881,13.333 20.164,47.333 20.164,47.333c-6.172,0.666 -15.637,-8.667 -15.637,-8.667c3.703,23.333 23.045,23.334 23.045,23.334c0,0 -12.758,6.666 -22.634,0.666c0,0 5.35,18 20.988,20c0,0 -13.58,0.667 -21.399,-1.999c0,0 12.861,25.667 26.029,15.833c0,0 -13.992,12.333 -27.572,2.833c0,0 -9.978,11.834 -21.502,9.334c0,0 7.715,-4.5 9.053,-14.667" style="fill:#3c3c3b;fill-rule:nonzero;"/><path d="M108.266,39.554c0,0 3.198,16.988 6.474,28.956c3.276,11.969 8.543,22.656 15.64,23.404c0,0 -10.374,8.976 -19.111,-0.748c0,0 7.099,11.968 23.479,14.212c0,0 -11.466,9.723 -22.933,1.496c0,0 11.468,29.921 28.94,23.189c0,0 -12.012,12.716 -27.301,0c0,0 4.914,29.171 39.313,21.692c0,0 -30.031,17.951 -46.958,-2.244c0,0 -12.012,15.707 -26.209,5.983c0,0 18.564,-8.975 21.295,-26.927c0,0 -9.282,7.479 -19.11,5.983c0,0 19.656,-13.464 20.202,-27.676c0,0 -10.374,8.229 -15.834,5.237c0,0 16.497,-10.022 15.288,-19.449c0,0 -8.799,3.367 -12.457,2.619c0,0 15.747,-18.887 16.701,-25.993c0,0 -5.726,8.789 -11.293,9.163c0,0 14.228,-12.344 13.874,-38.897" style="fill:#3c3c3b;fill-rule:nonzero;"/><path d="M288.304,131.554c0,0 -1.968,8.889 -3.983,15.151c-2.016,6.262 -5.255,11.853 -9.621,12.245c0,0 6.381,4.697 11.755,-0.391c0,0 -4.366,6.262 -14.443,7.436c0,0 7.055,5.087 14.108,0.783c0,0 -7.054,15.655 -17.802,12.132c0,0 7.389,6.654 16.794,0c0,0 -3.023,15.264 -24.183,11.35c0,0 18.474,9.393 28.886,-1.174c0,0 7.388,8.219 16.122,3.131c0,0 -11.42,-4.696 -13.1,-14.089c0,0 5.71,3.913 11.756,3.131c0,0 -12.092,-7.045 -12.428,-14.481c0,0 6.382,4.305 9.741,2.739c0,0 -10.148,-5.243 -9.405,-10.175c0,0 5.413,1.761 7.663,1.37c0,0 -9.686,-9.882 -10.273,-13.6c0,0 3.522,4.598 6.947,4.794c0,0 -8.753,-6.459 -8.534,-20.352" style="fill:#3c3c3b;fill-rule:nonzero;"/><path d="M482.374,43.554c0,0 -1.996,15.283 -4.041,26.05c-2.044,10.767 -5.331,20.381 -9.762,21.054c0,0 6.475,8.076 11.928,-0.672c0,0 -4.43,10.766 -14.654,12.785c0,0 7.157,8.747 14.314,1.346c0,0 -7.157,26.918 -18.062,20.861c0,0 7.497,11.44 17.039,0c0,0 -3.067,26.243 -24.537,19.514c0,0 18.744,16.151 29.309,-2.018c0,0 7.496,14.131 16.358,5.383c0,0 -11.587,-8.075 -13.291,-24.225c0,0 5.794,6.729 11.927,5.383c0,0 -12.268,-12.112 -12.609,-24.898c0,0 6.476,7.403 9.883,4.711c0,0 -10.296,-9.016 -9.542,-17.496c0,0 5.492,3.028 7.774,2.356c0,0 -9.828,-16.991 -10.424,-23.384c0,0 -1.831,-2.862 -1.61,-26.75" style="fill:#3c3c3b;fill-rule:nonzero;"/><path d="M552.23,27.554c0,0 -3.352,15.141 -6.784,25.808c-3.433,10.667 -8.951,20.192 -16.389,20.859c0,0 10.87,8 20.025,-0.667c0,0 -7.438,10.667 -24.602,12.667c0,0 12.016,8.666 24.03,1.333c0,0 -12.015,26.667 -30.323,20.667c0,0 12.586,11.333 28.606,0c0,0 -5.149,26 -41.194,19.333c0,0 31.469,16 49.205,-2c0,0 12.586,14 27.462,5.333c0,0 -19.452,-8 -22.313,-24c0,0 9.726,6.667 20.025,5.334c0,0 -20.598,-12 -21.17,-24.667c0,0 10.871,7.334 16.592,4.667c0,0 -17.285,-8.932 -16.02,-17.334c0,0 9.221,3.001 13.053,2.334c0,0 -16.5,-16.833 -17.5,-23.166c0,0 6,7.833 11.834,8.166c0,0 -14.908,-11.001 -14.537,-34.667" style="fill:#3c3c3b;fill-rule:nonzero;"/><path d="M605.23,13.054c0,0 -3.352,15.141 -6.784,25.808c-3.433,10.667 -8.951,20.192 -16.389,20.859c0,0 10.87,8 20.025,-0.667c0,0 -7.438,10.667 -24.602,12.667c0,0 12.016,8.666 24.03,1.333c0,0 -12.015,26.667 -30.323,20.667c0,0 12.586,11.333 28.606,0c0,0 -5.149,26 -41.194,19.333c0,0 31.469,16 49.205,-2c0,0 12.586,14 27.462,5.333c0,0 -19.452,-8 -22.313,-24c0,0 9.726,6.667 20.025,5.334c0,0 -20.598,-12 -21.17,-24.667c0,0 10.871,7.334 16.592,4.667c0,0 -17.285,-8.932 -16.02,-17.334c0,0 9.221,3.001 13.053,2.334c0,0 -16.5,-16.833 -17.5,-23.166c0,0 6,7.833 11.834,8.166c0,0 -14.908,-11.001 -14.537,-34.667" style="fill:#3c3c3b;fill-rule:nonzero;"/><path d="M5.433,47.841c0,0 -0.5,51.808 -3,61.323l5,1.057c0,0 3,-50.75 -2,-62.38" style="fill:#3c3c3b;fill-rule:nonzero;"/><path d="M356.433,118.722l-1.5,58.125l7.5,3.875c0,0 -1.5,-36.167 -6,-62" style="fill:#3c3c3b;fill-rule:nonzero;"/><path d="M368.933,142.617c0,0 -0.5,31.646 -3,37.459l5,0.645c0,0 3,-31 -2,-38.104" style="fill:#3c3c3b;fill-rule:nonzero;"/><path d="M41.933,32.722l-1.5,95.156l7.5,6.344c0,0 -1.5,-59.208 -6,-101.5" style="fill:#3c3c3b;fill-rule:nonzero;"/><path d="M54.433,71.841c0,0 -0.5,51.808 -3,61.323l5,1.057c0,0 3,-50.75 -2,-62.38" style="fill:#3c3c3b;fill-rule:nonzero;"/><path d="M92.9,77.748l-2.549,67.321l6.418,-1.873c0,0 -0.968,-38.178 -3.869,-65.448" style="fill:#3c3c3b;fill-rule:nonzero;"/><path d="M100.96,102.972c0,0 -0.322,33.406 -1.935,39.542l3.225,0.682c0,0 1.934,-32.724 -1.29,-40.224" style="fill:#3c3c3b;fill-rule:nonzero;"/><path d="M598.956,106.699l-3.819,-1.214l-12.937,-20.65l4.851,17.129l-6.809,-7.824l6.52,21.1l-9.828,-14.534l-2.649,1.129l-3.611,-1.032l-6.458,-7.512l1.378,10.214l0.266,7.822l2.13,12.287l-9.676,-15.21l-4.693,-3.721l0.99,9.797l0.703,9.274l-9.307,-15.012l-1.17,4.73l2.399,13.699l-6.921,-9.494l-1.43,4.244l1.194,11.067l-11.811,-22.531l2.863,15.518l1.309,11.718l-10.03,-18.527l-4.376,-3.607l-4.742,-4.697l2.893,16.393l-4.324,-3.563l0.385,9.761l-8.618,-16.014l0.478,10.151l-6.636,-10.669l7.155,30.335l-6.275,-9.633l-1.274,5.452l-2.906,0.496l-5.23,-6.858l-6.85,-12.267l-2.275,2.226l3.942,22.751l-6.896,-12.855l-0.902,7.087l-4.115,-3.796l-3.338,-1.216l1.108,14.516l-2.476,2.007l-6.892,-14.134l0.017,11.128l-7.599,-17.367l3.568,25.068l-3.356,-1.265l-2.186,3.343l-5.667,-10.707l-4.937,-8.108l-3.782,-3.57l1.154,17.489l-3.715,-3.188l-5.186,-9.93l-3.387,-2.144l-2.863,0.152l2.861,27.47l-5.15,-10.425l-4.239,-6.362l-0.959,10.044l-1.46,7.881l-6.776,-20.215l-4.481,-8.664l2.483,30.089l-4.932,-11.239l-3.671,-4.375l-5.005,-12.832l1.914,29.965l-5.021,-13.215l-2.769,0.981l-1,13.249l-3.685,-5.099l-5.197,-16.633l0.188,23.397l-4.475,-11.966l-4.176,-10.465l-2.119,6.362l-3.831,-8.507l-1.74,10.343l-3.012,-1.215l-4.054,-12.119l-0.062,29.894l-5.237,-26.086l-2.286,6.593l-2.26,7.747l-2.572,4.447l-3.254,-4.995l-3.436,-8.706l-3.273,-7.459l-1.402,26.522l-2.814,2.503l-4.151,-27.898l-2.562,6.413l-2.264,17.131l-3.282,-12.73l-2.567,12.347l-2.841,4.236l-3.237,-22.53l-2.72,12.693l-2.937,-15.004l-2.851,21.726l-2.815,-15.855l-2.899,4.945l-2.795,-4.341l-2.84,-0.273l-3.126,10.447l-3.02,3.82l-2.279,-17.218l-3.742,21.529l-1.728,-25.66l-3.023,4.061l-3.79,16.478l-2.56,-5.731l-1.809,-15.929l-2.927,1.55l-3.9,13.72l-1.439,-17.392l-5.188,26.739l-3.059,1.135l-2.499,-4.624l-2.379,-5.345l-2.418,-4.503l-3.66,6.659l-2.757,-1.447l-2.932,0.041l-1.744,-9.054l-4.772,13.809l0.002,-20.916l-3.114,1.74l-5.002,13.962l-1.97,-6.198l-3.364,2.7l-0.497,-14.478l-4.363,8.578l-0.367,-14.194l-4.387,8.302l-2.286,-3.206l-1.609,-6.539l-7.731,24.194l-2.627,-1.779l2.528,-25.974l-8.265,24.781l-0.678,-10.413l-4.089,4.94l-5.149,9.194l-2.775,-1.135l0.886,-15.991l-3.902,3.708l0.581,-13.895l-4.901,7.503l0.189,-11.768l-3.215,1.076l-4.465,5.458l-0.42,-8.921l-8.664,19.638l2.994,-20.313l-5.009,6.8l-7.537,14.693l5.453,-27.118l-10.609,23.891l0.486,-10.947l1.82,-14.598l-9.961,20.662l-1.936,-3.364l3.139,-17.762l-10.849,22.036l2.835,-16.471l-4.183,3.079l2.295,-14.348l-2.594,-1.082l-10.761,20.051l-5.088,4.942l2.187,-13.475l-0.57,-6.293l1.349,-10.803l-6.06,7.234l-8.545,12.856l2.929,-14.238l-3.591,1.087l-4.41,2.869l-1.153,-4.495l-0.189,-6.523l-5.191,4.46l-0.226,-6.302l-7.121,8.364l-4.866,3.416l-5.184,3.937l-1.477,-3.684l0.25,-7.08l-4.732,2.882l-5.106,3.51l7.003,-19.854l-11.283,15.244l-0.941,-4.501l-4.71,2.524l9.202,-22.921l-0.086,-5.663l-6.055,5.04l-4.424,2.02l-9.392,10.541l3.478,-11.77l5.15,-14.335l-8.738,9.143l-4.712,2.253l-1.018,-3.851l3.772,-11.491l-4.607,2.05l-2.237,-1.744l-3.738,0.582l-9.933,10.014l5.831,-14.104l-3.892,0.725l-4.079,0.943l1.855,-7.762l-7.54,7.838l0,457.315l3.254,3.491l2.91,-0.684l-4.273,-13.04l13.003,16.812l-10.083,-23.499l6.492,5.584l-1.685,-9.016l16.478,23.974l-9.47,-23.383l9.192,10.987l2.726,-0.944l-4.776,-15.282l11.051,15l0.113,-6.021l-5.304,-16.844l16.351,26.136l-3.202,-12.812l-4.829,-16.415l4.113,1.761l1.732,-3.16l4.125,1.872l7.101,8.326l2.884,-0.601l2.323,-1.819l4.612,3.243l0.478,-5.924l-4.425,-17.148l3.587,0.847l7.232,9.367l9.679,15.348l-3.472,-15.494l2.348,-1.849l0.469,-6.429l8.439,13.021l-5.277,-20.713l3.296,0.349l2.301,-2.112l6.386,8.342l2.059,-2.69l2.268,-2.172l0.508,-6.877l8.229,13.737l4.035,2.689l1.252,-4.895l2.172,-2.418l7.047,11.239l0.231,-7.84l5.389,6.81l0.77,-6.403l-3.001,-17.667l4.898,5.466l0.987,-6.152l5.071,6.148l3.957,2.894l5.737,8.497l-6.539,-29.914l2.824,-0.793l5.171,6.792l9.055,19.636l-2.86,-19.189l0.193,-9.432l6.439,11.452l5.502,8.544l0.873,-7.232l5.087,7.351l-4.649,-26.916l3.309,0.959l9.467,23.318l3.176,0.856l-3.94,-25.559l5.404,8.953l7.348,16.575l-4.488,-28.532l2.545,-1.809l3.435,1.642l7.073,16.225l-0.945,-15.709l9.251,25.578l-2.346,-21.795l5.843,12.021l3.969,4.375l2.366,-2.355l-1.703,-20.124l5.662,11.829l1.849,-4.853l3.557,2.737l3.776,3.833l3.23,1.413l0.912,-9.391l2.046,-4.242l4.33,6.66l2.043,-4.314l4.331,6.908l1.282,-8.17l2.026,-4.598l3.12,0.922l5.576,13.76l-1.599,-23.752l4.532,8.444l2.175,-4.094l2.041,-4.907l7.556,25.646l-0.553,-19.395l4.618,9.698l2.642,-1.501l3.712,4.738l-1.256,-24.79l5.627,16.304l3.911,6.183l0.685,-13.748l3.109,1.214l5.249,15.048l-0.13,-19.665l4.632,11.391l1.993,-6.06l0.614,-15.639l5.137,15.282l4.687,12.636l1.493,-9.878l0.364,-18.397l3.568,4.727l4.408,11.23l3.41,3.947l-0.1,-23.156l6.328,26.911l0.618,-18.129l1.733,-9.576l5.391,20.572l3.797,7.73l0.998,-16.052l1.89,-8.816l3.568,5.89l2.564,-3.063l4.627,16.061l2.906,0.422l1.478,-13.434l3.618,7.158l2.695,-1.809l3.344,4.801l1.218,-17.236l2.91,0.058l2.294,-6.628l5.599,30.044l0.569,-25.997l4.326,16.651l2.186,-8.124l2.278,-7.352l2.426,-5.857l4.505,20.487l2.237,-8.191l3.618,9.981l1.344,-20.881l3.464,8.006l2.542,-5.037l3.836,14.095l3.154,4.429l2.088,-12.232l2.617,-4.32l3.668,13.066l3.076,3.711l2.225,-11.299l3.312,8.033l1.633,-23.522l2.935,0.707l4.233,27.427l1.871,-20.996l2.84,-1.004l3.385,11.384l2.763,-2.561l2.69,-4.593l3.384,13.191l2.504,-9.655l2.999,3.606l3.066,5.991l2.946,2.999l2.82,-0.9l2.415,-15.879l2.719,-6.164l3.426,21.99l2.442,-18.027l2.887,0.274l3.234,18.359l2.477,-21.208l3.192,19.466l2.888,2.976l2.53,-26.033l3.001,10.416l3.011,15.904l2.813,-4.651l2.864,1.641l2.803,-12.289l2.847,-11.55l2.902,26.566l2.867,-17.959l2.886,-3.499l2.82,13.036l2.992,-20.371l2.865,3.339l2.804,8.491l2.822,4.486l2.772,7.077l2.831,1.229l2.994,-8.274l2.806,3.258l2.993,-6.575l2.819,2.475l2.997,-5.514l3.105,-8.839l2.344,20.216l3.022,-5.599l2.857,0.503l2.628,7.395l3.486,-18.322l3.125,-6.383l2.393,13.391l2.228,16.374l2.996,-3.431l3.008,-3.553l2.72,3.146l2.784,1.626l0.856,-1.242l0,-319.627l-0.978,2.088Z" style="fill:#3c3c3b;fill-rule:nonzero;"/><path d="M592.503,80.041l7.43,21.446l0,-10.699l-7.43,-10.747Z" style="fill:#3c3c3b;fill-rule:nonzero;"/><path d="M599.933,101.486l0,3.125l0.622,-1.329l-0.622,-1.796Z" style="fill:#3c3c3b;fill-rule:nonzero;"/></g><g id="Layer-8"><path d="M74.933,533.889c2.045,-5.434 -0.255,-12.406 -0.031,-18.159c0.284,-7.294 0.624,-14.612 1.277,-21.872c0.942,-10.472 1.592,-20.929 3.513,-31.302c2.206,-11.918 7.223,-24.567 7.908,-36.667c2.811,-8.71 1.053,-18.716 1.981,-28.05c1.125,-11.305 5.056,-11.754 5.292,-23.162c-8.227,-5.331 -15.472,-11.346 -22.265,-18.428c-7.088,-7.389 -17.173,-15.465 -22.395,-24.305c-5.809,-9.83 1.568,-23.52 4.634,-33.277c8.071,-25.684 20.684,-53.121 22.013,-80.322c-7.39,4.189 -11.122,12.356 -15.919,18.866c1.688,-7.843 1.175,-16.713 2.361,-24.717c1.632,-11.008 5.107,-21.788 7.035,-32.813c-2.934,2.921 -4.362,6.522 -6.094,10.231c4.052,-9.158 6.443,-18.573 12.411,-26.855c8.06,-11.183 47.55,-35.423 56.714,-46.05c8.776,-10.177 24.844,-20.47 31.565,-32.285l114.667,25.834c6.321,5.408 14.527,3.717 21.499,7.389c7.087,3.733 12.664,12.15 18.857,17.35c13.873,11.65 19.258,30.847 18.108,48.491c-0.598,9.181 0.019,13.978 -3.131,22.686c6.375,10 -0.371,67.188 -17.279,76.07c14.306,9.898 28.215,28.672 37.279,43.347l24.666,34.667c1.963,4.613 4.223,11.879 3.234,17.265c-2.5,-1.059 -4.398,-4.234 -6.675,-5.079c-4.911,-1.826 -13.19,1.162 -17.823,2.63c1.743,3.378 5.118,7.061 4.498,11.08c-6.371,-1.105 -10.425,-8.051 -17.441,-8.145c-7.617,-0.102 -2.449,10.672 -4.623,17.38c-3.438,-11.824 -15.231,-17.778 -23.885,-25.235c-6.936,-5.975 -15.211,-11.838 -21.43,-18.473c-4.649,-4.959 -11.653,-8.554 -12.715,-15.305c-6.667,17.196 -7.396,27.939 -11.166,46.069c-3.355,16.136 -1.751,31.824 -2.598,47.951c-0.465,8.845 -2.343,19.128 -0.042,27.862l-194,75.333Z" style="fill-rule:nonzero;"/></g><g id="Bushes"><path d="M218.864,532.603c0,-28.903 23.431,-52.334 52.333,-52.334c28.903,0 52.334,23.431 52.334,52.334c0,28.902 -23.431,52.333 -52.334,52.333c-28.902,0 -52.333,-23.431 -52.333,-52.333" style="fill:#3c3c3b;fill-rule:nonzero;"/><path d="M316.865,532.603c0,-25.222 -20.446,-45.668 -45.667,-45.668c-13.715,0 -26.008,6.054 -34.379,15.626c8.031,-7.025 18.537,-11.292 30.045,-11.292c25.221,0 45.667,20.446 45.667,45.668c0,11.507 -4.266,22.012 -11.289,30.042c9.57,-8.371 15.623,-20.663 15.623,-34.376" style="fill:#fff;fill-rule:nonzero;"/><path d="M200.282,478.747c0,-21.11 17.113,-38.223 38.223,-38.223c21.11,0 38.222,17.113 38.222,38.223c0,21.109 -17.112,38.223 -38.222,38.223c-21.11,0 -38.223,-17.114 -38.223,-38.223" style="fill:#3c3c3b;fill-rule:nonzero;"/><path d="M271.859,478.747c0,-18.421 -14.933,-33.354 -33.354,-33.354c-10.017,0 -18.995,4.42 -25.109,11.413c5.865,-5.132 13.539,-8.248 21.944,-8.248c18.421,0 33.353,14.933 33.353,33.354c0,8.404 -3.115,16.077 -8.245,21.942c6.99,-6.114 11.411,-15.091 11.411,-25.107" style="fill:#fff;fill-rule:nonzero;"/><path d="M135.121,455.388c0,-21.11 17.113,-38.223 38.223,-38.223c21.11,0 38.222,17.113 38.222,38.223c0,21.109 -17.112,38.223 -38.222,38.223c-21.11,0 -38.223,-17.114 -38.223,-38.223" style="fill:#3c3c3b;fill-rule:nonzero;"/><path d="M206.697,455.388c0,-18.421 -14.933,-33.354 -33.354,-33.354c-10.017,0 -18.995,4.42 -25.109,11.413c5.865,-5.132 13.539,-8.248 21.944,-8.248c18.421,0 33.353,14.933 33.353,33.354c0,8.404 -3.115,16.077 -8.245,21.942c6.99,-6.114 11.411,-15.091 11.411,-25.107" style="fill:#fff;fill-rule:nonzero;"/><path d="M130.427,517.321c0,-25.436 20.62,-46.055 46.055,-46.055c25.435,0 46.054,20.619 46.054,46.055c0,25.435 -20.619,46.055 -46.054,46.055c-25.435,0 -46.055,-20.62 -46.055,-46.055" style="fill:#3c3c3b;fill-rule:nonzero;"/><path d="M216.67,517.321c0,-22.195 -17.993,-40.189 -40.188,-40.189c-12.069,0 -22.888,5.327 -30.255,13.751c7.068,-6.182 16.313,-9.937 26.441,-9.937c22.195,0 40.188,17.993 40.188,40.188c0,10.127 -3.754,19.372 -9.935,26.439c8.422,-7.367 13.749,-18.184 13.749,-30.252" style="fill:#fff;fill-rule:nonzero;"/><path d="M135.584,568.049c0,-37.034 30.021,-67.055 67.055,-67.055c37.033,0 67.054,30.021 67.054,67.055c0,37.032 -30.021,67.055 -67.054,67.055c-37.034,0 -67.055,-30.023 -67.055,-67.055" style="fill:#3c3c3b;fill-rule:nonzero;"/><path d="M261.153,568.049c0,-32.316 -26.198,-58.515 -58.514,-58.515c-17.572,0 -33.323,7.756 -44.049,20.023c10.29,-9.002 23.751,-14.47 38.497,-14.47c32.316,0 58.512,26.198 58.512,58.514c0,14.745 -5.465,28.205 -14.464,38.494c12.262,-10.726 20.018,-26.475 20.018,-44.046" style="fill:#fff;fill-rule:nonzero;"/></g><g id="sasquatch-hands"><path d="M340.933,315.389c0,0 -1,-12.333 -1.166,-21c-0.168,-8.667 -3.834,-10.5 7.832,-26.167c11.668,-15.666 12,1.334 12,1.334l3.834,-6.5l15,-0.667l13.5,4.667c0,0 -9,9.499 -10.666,30.166c0,0 10.5,-17 13,-19.666l6.832,6.166c0,0 -8.832,10 -10.332,27.167c0,0 -37.168,-19.667 -49.834,4.5" style="fill:#868686;fill-rule:nonzero;"/><path d="M204.266,344.556c0,0 7.333,-6 9.333,-9c0,0 2.667,-12.001 12.667,-17.334c0,0 10,1.334 10,7.334c0,6 -6.667,19 -11.333,22.333c0,0 -10,22.667 -35.667,32c0,0 -42.333,37.999 -45,-19.667c0,0 -1.334,-5 -8,-12c-6.667,-7 -9,-18 -4.333,-20.333c4.666,-2.333 11.333,0.667 12.333,7.667c0,0 1,1.333 2.333,3.333c0,0 9.734,-10.754 21.374,-14.885c10.46,-3.712 22.846,-0.727 24.57,-2.594c0,0 2.125,7.286 0.607,11.383c0,0 -0.991,7.133 11.116,11.763" style="fill:#d9d9d9;fill-rule:nonzero;"/><path d="M149.173,341.211c0,0 -5.061,-13.992 -6.374,-22.586c-1.313,-8.594 0.134,-16.056 0.499,-20.094c0.366,-4.039 -0.806,-19.662 7.396,-17.269c8.202,2.393 10.105,9.936 6.149,19.595c0,0 2.236,7.522 0.997,13.297c0,0 4.538,7.014 6.258,16.578c0,0 -5.369,13.104 -14.925,10.479" style="fill:#868686;fill-rule:nonzero;"/><path d="M180.599,322.555c-0.667,-7.5 -1.333,-9.999 -1.667,-18.999c0,0 6.667,-9.668 5.334,-15.334c0,0 15.666,-13.667 0,-22.667c0,0 -6.333,4.333 -9,12.667c0,0 -12.001,16.666 -12.334,23c-0.333,6.334 -1.333,21.668 1.667,27.334c3,5.666 16.667,1.499 16,-6.001" style="fill:#868686;fill-rule:nonzero;"/><path d="M191.266,322.222c2.667,-3.833 6,-7.332 7.333,-15.666c0,0 6,-4.334 5.667,-9.334c0,0 19.333,-8.333 12.333,-15.833c-7,-7.5 -15.999,5.167 -18.166,7.167c-2.167,1.999 -9.5,8.499 -10.667,10.499c-1.167,2.001 -8,17.836 -7.667,21.335c0.334,3.499 8.5,5.665 11.167,1.832" style="fill:#868686;fill-rule:nonzero;"/><path d="M174.975,342.765c6.205,-4.624 15.14,-7.847 15.14,-7.847c-5.464,-1.366 -19.478,8.346 -21.402,11.232c-1.821,2.732 -17.607,17.151 -17.607,17.151c4.779,-1.593 12.556,-7.223 16.547,-11.823c-2.449,6.649 -4.801,17.406 1.364,25.332c0,0 -6.518,-12.918 5.958,-34.045" style="fill:#868686;fill-rule:nonzero;"/><path d="M321.281,344.036c0,0 19.502,37.651 42.5,23.335c0,0 13.865,6.877 21.193,-20.742c7.327,-27.619 9.469,-20.743 7.327,-32.693c-2.141,-11.949 -38.442,-15.332 -44.868,-11.949c-6.425,3.382 -11.16,25.14 -10.595,30.212c0,0 -3.045,3.271 -7.78,-0.112c-4.734,-3.383 -10.595,-8.455 -14.767,-9.583c0,0 -4.397,2.818 -6.539,8.004c0,0 1.918,9.245 13.529,13.528" style="fill:#d9d9d9;fill-rule:nonzero;"/><path d="M346.558,323.847c0,0 -3.5,9.75 -16.375,10.875c0,0 14.5,2.375 16.375,-10.875" style="fill:#868686;fill-rule:nonzero;"/><path d="M361.808,358.472c0,0 0.625,-25 -9.375,-37.125c0,0 9.875,0.75 17.125,5.875c7.25,5.125 13.5,6.875 15.375,6.125c0,0 -7.168,1.968 -16.875,-5.125c-3.25,-2.375 -11.25,-3.875 -11.25,-3.875c0,0 9.625,12.875 5,34.125" style="fill:#868686;fill-rule:nonzero;"/><path d="M362.683,365.972c0,0 8.625,-6.625 8.75,-14.875c0,0 2.375,9.75 -8.75,14.875" style="fill:#868686;fill-rule:nonzero;"/><path d="M351.308,314.222c0,0 13,-1.25 20.25,4.875c7.25,6.125 16.125,5.625 17.375,4.875c0,0 -4.187,5.659 -18,-3.625c-7.625,-5.125 -19.625,-6.125 -19.625,-6.125" style="fill:#868686;fill-rule:nonzero;"/><path d="M347.433,275.055c0,0 7,5.167 10.5,-1.167c3.5,-6.333 0.166,-13 -2.834,-12c-3,1 -11,10.667 -7.666,13.167" style="fill:#d9d9d9;fill-rule:nonzero;"/><path d="M367.599,268.889c2.334,0.833 -7.498,-1.167 -3.832,-8.167c3.666,-7 9.832,-9.667 12.832,-8.833c3,0.833 7.502,5.5 2.168,11.333c-5.334,5.834 -11.168,5.667 -11.168,5.667" style="fill:#d9d9d9;fill-rule:nonzero;"/><path d="M391.267,286.722c1.6,1.92 8.5,0.5 10.832,-3.833c2.334,-4.334 0.666,-7 -1.166,-8.5c-1.834,-1.5 -4.666,-1 -7.166,2.833c-2.5,3.833 -5,6.5 -2.5,9.5" style="fill:#d9d9d9;fill-rule:nonzero;"/><path d="M382.267,272.055c0,0 6.334,1.833 8.166,-0.833c1.834,-2.667 10.5,-13.167 2.666,-17.334c-7.832,-4.166 -12.832,6.167 -14.332,11.5c-1.5,5.334 3.5,6.667 3.5,6.667" style="fill:#d9d9d9;fill-rule:nonzero;"/><path d="M147.597,302.253c0,0 8.617,-0.5 9.32,-1.438c0.703,-0.937 5.91,-13.207 -2.642,-18.244c-8.553,-5.038 -9.958,0.82 -10.544,7.029c-0.586,6.209 -1.054,12.419 3.866,12.653" style="fill:#d9d9d9;fill-rule:nonzero;"/><path d="M176.416,285.266c2.695,2.343 7.498,6.443 11.833,-0.586c4.334,-7.029 7.126,-17.304 -4.335,-19.359c-7.029,-1.26 -10.193,17.602 -7.498,19.945" style="fill:#d9d9d9;fill-rule:nonzero;"/><path d="M201.266,293.888c2.5,2.5 3.5,5.667 12.333,-1.833c8.834,-7.5 3.667,-10.667 1.334,-12.5c-2.334,-1.834 -7.167,0 -10,4.333c-2.834,4.333 -6.167,7.5 -3.667,10" style="fill:#d9d9d9;fill-rule:nonzero;"/><path d="M143.933,358.556c0,0 8,-7 6.667,-14c0,0 2.927,8.272 -6.334,15.666l-0.333,-1.666Z" style="fill:#868686;fill-rule:nonzero;"/></g><g id="sasquatch"><path d="M287.766,147.889c-1.655,-13.07 -0.308,-32.63 -2.333,-46.333c-1.094,-7.398 -7.292,-28.584 -2.625,-31.584c-2.667,-14 -19.966,-18.676 -25.375,-25.083c-9.51,-11.265 -17.99,-22.816 -29,-32.667c-18.056,-16.153 -29.494,-10.289 -46.334,4c3.769,-3.688 13,-6 16.334,-7c-7.276,7.412 -26.315,19.943 -28.072,29.626c4.97,-3.802 12.458,-6.838 18.769,-7.646c-16.626,1.537 -27.682,26.409 -34.821,38.643c5.674,-2.515 12.036,-7.639 18.124,-9.623c-7.567,9.029 -17.399,19.251 -23.099,29.6c6.184,-3.326 10.943,-9.151 16.944,-12.445c-3.396,6.282 -9.544,10.232 -13.919,15.877c-4.392,5.668 -6.439,12.424 -10.046,18.614c3.861,-3.062 7.528,-6.831 12.02,-8.495c-6.228,8.689 -11.456,15.899 -15.9,25.849l21,-1c0,0 -16.5,45.5 14,60c30.5,14.5 124.166,37.334 114.333,-40.333" style="fill-rule:nonzero;"/><path d="M217.933,108.888c0,0 -11.333,-5.667 -16.333,7.333l3.883,-1.776c0,0 -12.3,8.151 -13.675,19.151c0,0 2.437,-3.25 6.812,-4.687c0,0 -9.687,6.313 -9.354,22.813c0,0 0.999,-3.667 4.333,-4.501c0,0 -10.499,16.167 -0.999,28.834c0,0 0.5,-8.333 4.833,-10.333c0,0 -9.167,19.333 5.5,36.999c0,0 -0.5,-8.5 3.667,-11.833c0,0 -1.834,25 11.333,38c0,0 -2.833,-11.667 -1,-16.167c0,0 8,15.667 2.167,23.667c0,0 6.667,-2.667 8,-16c0,0 3.833,11.334 -1.5,27.167c0,0 9,-12.5 9.666,-21.834c0,0 1.167,13.334 6.834,19.667c0,0 -2.5,-17.833 0.833,-22.833c0,0 7.5,5.834 7.667,19.667c0,0 8.499,-6.167 10.166,-24.834c0,0 5,5.333 2.5,13c0,0 17.834,-26.667 14.834,-41.167c0,0 2.583,0.75 2.833,7.25c0,0 4.75,-21.25 -2,-31.25c0,0 4,1.5 5.5,4.25c1.5,2.75 -4.25,-19.5 -7,-27.25c0,0 2.25,0.25 4.75,5c0,0 -1.188,-20.707 -7.5,-27.5c0,0 3.25,-2 5,0.75c0,0 -6.416,-16.292 -16.5,-11.25c-3.623,1.812 -14.719,4.183 -25.75,4.988c-7.238,0.529 -14.448,3.23 -19.5,-5.321" style="fill:#868686;fill-rule:nonzero;"/><path d="M211.516,129.305c-2.042,5.752 -3.277,8.747 -3.585,14.935c-0.256,5.111 0.985,11.829 2.668,16.648c10.629,4.53 21.916,3.777 33.09,5.916c12.134,2.322 23.147,1.753 22.551,-13.53c-0.249,-6.38 -1.731,-12.742 -2.641,-19.052c-2.013,-3.747 -4.143,-5.768 -7.794,-8.06c-3.209,-2.014 -7.523,-3.902 -11.294,-4.42c-4.339,-0.597 -7.228,2.065 -11.295,2.493c-4.03,0.424 -7.228,-2.915 -11.206,-2.537c-4.226,0.401 -7.848,4.702 -10.494,7.607" style="fill-rule:nonzero;"/><path d="M258.775,129.834c0.663,1.672 2.154,9.383 -0.148,12.178c-3.433,-3.357 -3.583,-8.665 -6.776,-11.968c-0.266,1.011 -1.028,2.532 -1.399,3.698c-7.671,-0.021 -22.699,5.479 -25.852,-3.972c-3.719,2.691 -5.592,6.78 -7.749,10.765c-1.861,-3.661 -1.68,-8.636 -0.251,-12.646c0,0 5.166,-3.083 10.666,-1.083c5.5,2 21.96,0.906 24.667,0.5c0.94,-0.141 5.775,-0.164 6.842,2.528" style="fill:#fff;fill-rule:nonzero;"/><path d="M198.933,73.888c-6.333,11.667 -6.174,38.179 20,28c30,-11.666 23.333,-4 42,0.667c18.667,4.667 18,-23 8,-33.667c-10,-10.667 -63.296,-7.349 -70,5" style="fill:#3c3c3b;fill-rule:nonzero;"/><path d="M211.933,158.472c-0.45,-0.334 1.882,-5.009 2.89,-7.457c2.348,2.279 3.68,4.132 3.973,7.774c4.173,-7.627 33.04,-4.808 36.605,2.997c-0.088,-2.945 1.216,-5.041 1.395,-7.797c2.169,3.338 2.773,7.687 3.804,11.9c0,0 -38.917,-0.167 -48.667,-7.417" style="fill:#fff;fill-rule:nonzero;"/><path d="M195.266,64.555c0,-3.891 0.116,-7.082 -3.217,-9.683c1.035,0.143 2.145,-0.041 3.167,-0.034c0.211,-2.623 -2.201,-4.907 -3.474,-6.956c2.22,-1.389 5.726,-0.676 6.239,-3.995c0.346,-2.241 -2.003,-5.529 -2.59,-7.697c2.172,1.309 6.475,1.976 8.1,-0.269c2.074,-2.864 -1.34,-6.405 -1.158,-9.332c3.04,2.527 8.791,1.925 12.216,0.567c-0.584,-2.223 -2.208,-4.289 -3.582,-6.201c6.621,0.005 13.288,1.895 19.328,4.618c5.744,2.59 9.751,8.539 14.836,12.246c4.442,3.237 8.651,7.837 12.192,12.034c1.811,2.147 3.581,4.695 5.811,6.438c1.925,1.503 4.59,1.926 6.305,3.671c2.198,2.236 2.606,3.968 5.295,5.851c3.241,2.272 3.839,4.017 3.199,8.075c0,0 -20.875,-6.791 -30,-1.166c-9.125,5.625 -15.875,-0.375 -25.625,-2.625c-9.75,-2.25 -24.5,0.125 -27.125,1.25c-2.625,1.125 0.083,-6.792 0.083,-6.792" style="fill:#d9d9d9;fill-rule:nonzero;"/><path d="M184.599,83.222c-5.856,4.625 -8.112,11.657 -9.578,18.795c-1.373,6.69 2.197,11.665 5.911,16.872" style="fill:none;stroke:#000;stroke-width:1px;"/><path d="M277.266,79.555c0.732,3.414 2.314,6.705 3.022,10.136c0.604,2.926 0.262,6.186 0.407,9.188c0.319,6.584 1.242,15.355 -3.096,21.009" style="fill:none;stroke:#000;stroke-width:1px;"/><path d="M224.266,114.472c-2.185,3.433 -6.197,-4.316 -5.952,-7.188c0.225,-2.647 1.596,-5.632 3.38,-7.603c1.625,-1.794 3.876,-2.969 5.396,-4.758c1.383,-1.629 2.576,-3.766 3.082,-5.843c0.548,-2.244 0.617,-4.472 0.705,-6.767c0,0 -1.414,-11.665 -3.247,-12.498c0,0 15.166,4.834 17.5,3.167c0,0 -1.715,12.996 -1.404,15.156c0.457,3.167 2.844,4.445 4.838,6.281c2.725,2.508 6.241,5.1 7.841,8.528c1.875,4.018 2.798,9.752 -1.139,11.358c-1.107,0.452 -3.896,-0.146 -3.708,-3.021c0.187,-2.875 -1.349,-9.842 -7.625,-7.645c-3.334,1.166 -0.241,6.96 -2,10.333c-2,3.833 -10.5,4.833 -8.5,-1.667c1.397,-4.541 -1.792,-9.458 -5.167,-8.333c-3.375,1.125 -1.667,6.833 -4,10.5" style="fill:#d9d9d9;fill-rule:nonzero;"/><path d="M217.933,89.055c0,1.933 -1.567,3.5 -3.5,3.5c-1.933,0 -3.5,-1.567 -3.5,-3.5c0,-1.933 1.567,-3.5 3.5,-3.5c1.933,0 3.5,1.567 3.5,3.5" style="fill:#fff;fill-rule:nonzero;"/><path d="M262.599,89.055c0,1.933 -1.567,3.5 -3.5,3.5c-1.933,0 -3.5,-1.567 -3.5,-3.5c0,-1.933 1.567,-3.5 3.5,-3.5c1.933,0 3.5,1.567 3.5,3.5" style="fill:#fff;fill-rule:nonzero;"/><path d="M217.375,72.169c-8.981,-1.668 -10.551,2.234 -16.81,5.042c-7.965,3.572 -14.739,-6.072 -14.648,-14.06c1.506,2.237 3.313,2.83 5.636,3.348c-0.875,-2.058 -2.648,-4.056 -2.164,-6.475c1.59,5.762 6.026,3.862 10.048,3.074c8.727,-1.709 17.929,-1.237 26.56,0.89c3.368,0.831 6.912,0.797 7.269,5.232c0.317,3.961 -0.931,8.467 -4.819,7.515c-3.887,-0.951 -7.206,-3.847 -11.072,-4.566" style="fill:#868686;fill-rule:nonzero;"/><path d="M286.449,63.7c-8.367,3.854 -14.575,1.161 -22.129,0.44c-7.456,-0.711 -14.249,-3.217 -19.157,3.633c-4.613,6.439 -1.292,13.106 6.605,11.561c8.097,-1.584 11.621,-5.431 20.313,-3.31c8.958,2.185 15.91,-2.856 17.856,-10.066c-2.872,2.67 -5.435,2.52 -8.549,3.301c1.612,-1.262 4.977,-4.206 5.061,-5.559" style="fill:#868686;fill-rule:nonzero;"/><path d="M169.814,85.241c-1.815,-3.37 -0.81,-6.608 3.242,-5.236c4.051,1.371 2.991,4.55 3.615,6.296c0,0 2.929,-6.981 -1.372,-9.226c-4.3,-2.244 -10.738,1.505 -7.23,8.79c2.082,4.323 2.618,0.997 1.745,-0.624" style="fill:#868686;fill-rule:nonzero;"/></g><g id="shoveler"><path d="M434.183,385.972c0,0 -1.75,-6 2.75,-6.75c4.5,-0.75 15,3.75 15,3.75c0,0 -8.5,5 -17.75,3" style="fill:#fff;fill-rule:nonzero;"/><path d="M450.933,369.472c0,0 -10.25,-2.25 -14,-2c0,0 2.75,-14 5.75,-18l10.25,3.5l-2,16.5Z" style="fill:#fff;fill-rule:nonzero;"/><path d="M468.941,428.889c0,0 45.581,3.192 64.781,-11.429c0,0 22.546,-17.904 36.212,-17.571c13.666,0.333 29.334,-5.708 33.333,19.312c3.999,25.021 6.666,269.021 6.666,269.021l-5.5,18l-168.557,3c0,0 14.325,-125.617 -4.809,-187.309c-19.134,-61.691 -43.966,-63.043 -20.8,-75.617c23.166,-12.574 47.682,-1.24 58.674,-17.407" style="fill:#3c3c3b;fill-rule:nonzero;"/><path d="M474.268,259.223c0,0 -36.667,36 -22,36.667c0,0 -10.666,24 -17.333,30c-6.667,6 -8.667,16 3.333,17.333l-2.667,8.667c0,0 20.666,-4.001 8,30.666c0,0 -10,2.001 -13.333,-0.666c0,0 -6.667,12.668 1.333,18.667c8,5.999 34,5.332 44,1.999c0,0 -3.334,29.335 -14.667,38.001l106.001,-22.001c0,0 31.333,-194 -92.667,-159.333" style="fill:#d9d9d9;fill-rule:nonzero;"/><path d="M475.601,402.556c0,0 23.532,-3.904 31.192,-19.765c6.299,-11.75 10.14,-33.319 10.14,-33.319l52.25,66.25l-92.147,21.493c0,0 16.233,-24.825 -1.435,-34.659" style="fill:#868686;fill-rule:nonzero;"/><path d="M461.993,443.22c0,0 -11.768,-20.432 8.94,-17.413c20.708,3.018 51.485,3.744 70.743,-20.254c0,0 50.669,-23.355 49.591,47.335c-1.077,70.69 -40.036,43.364 -76.162,19.697c-36.126,-23.667 -53.112,-29.365 -53.112,-29.365" style="fill-rule:nonzero;"/><path d="M575.6,298.222c0,0 7.354,-5.198 11.556,7.736c4.201,12.935 11.813,51.429 8.908,74.521c-2.905,23.092 3.894,50.716 0.644,66.631c-3.25,15.915 0.225,39.112 0.225,39.112c0,0 -14.286,-11.14 -15.336,-35.335c-1.05,-24.195 -5.997,-152.665 -5.997,-152.665" style="fill:#d9d9d9;fill-rule:nonzero;"/><path d="M464.933,270.867c0,0 -8.028,-7.509 2.446,-20.579c10.475,-13.069 50.179,-21.682 78.642,-2.397c28.463,19.285 55.995,40.475 46.912,83.664c0,0 -21.694,-70.43 -71.84,-81.632c-50.145,-11.202 -51.965,13.154 -56.16,20.944" style="fill:#d9d9d9;fill-rule:nonzero;"/><path d="M565.6,486.889c0,0 9.543,-34.372 -4.57,-79.414l-8.108,-4.636c0,0 14.546,73.684 12.678,84.05" style="fill:#d9d9d9;fill-rule:nonzero;"/><path d="M490.266,268.889c0,0 -27.667,6.667 -27,-6.667c0.667,-13.333 41,-40 90,-6.666c49,33.333 39.667,75.999 39.667,75.999c0,0 -11.333,-29.999 -17.333,-33.333c0,0 20.667,44.667 16,72c-4.667,27.333 6.001,61.332 -0.333,82.666c-6.334,21.334 5.666,33.334 5.666,33.334c0,0 -18.666,-12.001 -23.333,-36.667c-4.667,-24.666 -12.668,-36.002 -17.334,-44.001c0,0 15.334,63.335 9.334,81.335c0,0 -4,-30.666 -22,-52c-18,-21.334 -33.999,-52.002 -33.333,-74.668c0.666,-22.666 14.665,-43.333 -14.001,-50.666c0,0 -14.666,36.668 -17.333,47.334c0,0 -10.001,-0.668 -12.667,-3.334c0,0 40,-51.999 6.667,-67.333l17.333,-17.333Z" style="fill:#3c3c3b;fill-rule:nonzero;"/><path d="M468.764,291.767c0,0 -13.16,4.724 -16.496,4.123l-1.53,3.332c0,0 15.988,-1.06 18.026,-7.455" style="fill:#3c3c3b;fill-rule:nonzero;"/><path d="M454.147,299.584c0,0 -6.181,7.63 -0.609,10.438c5.571,2.809 9.773,-6.457 4.963,-10.391c-1.545,-1.264 -2.715,-1.03 -4.354,-0.047" style="fill:#3c3c3b;fill-rule:nonzero;"/><path d="M438.268,343.223c0,0 13.774,2.999 11.637,-5.001c0,0 3.194,8.335 -2.972,8.501c-6.166,0.166 -9.742,0 -9.742,0l1.077,-3.5Z" style="fill:#868686;fill-rule:nonzero;"/><path d="M438.077,343.843l-1.865,6.063c0,0 12.721,0.816 16.721,17.066l0,-10.5c0,0 -1.75,-8.5 -6,-7.75c-4.25,0.75 -5.356,-4.379 -8.856,-4.879" style="fill:#3c3c3b;fill-rule:nonzero;"/><path d="M460.604,318.347c0,0 -15.421,-2.303 -10.546,11.453c4.875,13.756 12.719,19.931 4.797,44.01c0,0 18.103,-8.989 4.078,-35.921c-6,-11.521 -4.325,-12.417 1.671,-19.542" style="fill:#868686;fill-rule:nonzero;"/><path d="M496.266,309.555c0,0 16.691,-5.124 18.691,11.631c2,16.755 -16.957,33.636 -23.358,28.759c-6.401,-4.877 -3.332,-10.39 -3.332,-10.39c0,0 -1.228,4.905 3.916,8.522c5.144,3.618 20.604,-9.885 20.301,-23.514c-0.278,-12.505 -11.799,-12.005 -17.876,-10.817l1.658,-4.191Z" style="fill:#868686;fill-rule:nonzero;"/><path d="M296.244,443.61c0,0 22.879,16.482 23.564,1.355c0.687,-15.128 -1.79,-16.356 -2.878,-22.103c-1.087,-5.746 6.474,-10.292 -0.736,-13.437c-7.214,-3.144 -16.289,-8.754 -20.099,-2.881c-3.811,5.874 -1.457,34.622 0.149,37.066" style="fill:#3c3c3b;fill-rule:nonzero;"/><path d="M223.792,357.715l39.315,-3.046l33.151,21.547l-36.439,49.591l-30.862,-25.293l-5.165,-42.799Z" style="fill:#868686;fill-rule:nonzero;"/><path d="M365.85,472.585l4.244,-5.775l-0.418,-3.12l-85.822,-69.385c0,0 -9.123,-7.621 -24.452,-9.824l106.448,88.104Z" style="fill:#868686;fill-rule:nonzero;"/><path d="M371.325,469.257c0,0 5.3,23.124 8.029,24.891c0,0 13.812,-18.788 13.651,-22c0,0 -15.899,-4.818 -21.68,-2.891m-2.149,-7.66c24.198,1.919 32.416,8.363 32.416,8.363c0,0 -14.154,32.436 -23.675,33.207c-9.522,0.772 -14.445,-31.889 -14.445,-31.889c-0.813,-4.559 -0.996,-7.998 5.704,-9.681" style="fill:#3c3c3b;fill-rule:nonzero;"/><path d="M371.553,462.903c0,0 -78.179,-64.81 -88.004,-71.335c-9.826,-6.525 -24.147,-7.087 -24.147,-7.087c0,0 11.33,2.049 25.887,14.12c14.557,12.073 84.805,68.208 84.805,68.208l1.459,-3.906Z" style="fill:#3c3c3b;fill-rule:nonzero;"/><path d="M298.53,409.386l-7.573,-0.802c0,0 2.875,-2.259 3.91,-4.871c0,0 2.713,-8.075 6.832,-7.75c4.118,0.328 3.783,1.958 3.783,1.958c0,0 1.324,-3.625 4.552,-2.54c3.229,1.087 3.192,4.194 3.192,4.194c0,0 2.427,-1.88 4.357,-0.071c1.928,1.812 2.089,7.626 2.089,7.626c0,0 3.632,-1.368 5.083,1.235c1.453,2.6 1.991,8.857 0.767,11.25c-1.227,2.389 -5.495,11.792 -7.614,9.758c-2.119,-2.033 -0.737,-3.79 -0.004,-5.181c0,0 -3.464,4.491 -5.739,1.823c-2.277,-2.665 -1.067,-4.85 -1.067,-4.85c0,0 -2.144,3.558 -4.93,2.095c-2.788,-1.464 -0.37,-5.831 -0.37,-5.831c0,0 -3.108,2.653 -5.549,2.048c-2.44,-0.61 -2.176,-5.208 -0.316,-7.755c0,0 -0.143,-0.577 -0.259,-1.411l-1.144,-0.925" style="fill:#d9d9d9;fill-rule:nonzero;"/><path d="M287.467,416.864c0.303,-3.838 -1.27,-6.914 2.8,-9.544c4.07,-2.631 6.316,-5.178 6.316,-5.178c0,0 3.067,1.378 2.611,4.295c-0.457,2.916 -1.667,6.684 -3.685,9.247l1.143,8.493c0,0 7.512,2.641 7.753,11.062c0.24,8.422 -11.192,12.285 -14.605,0.886c-3.411,-11.399 -2.639,-15.424 -2.333,-19.261" style="fill:#d9d9d9;fill-rule:nonzero;"/><path d="M328.558,445.638c0,0 -19.125,-7.416 -30.625,-3.416c-11.5,4 -5.5,11 3,35c8.5,24 44.666,125.576 72.083,124.288c27.417,-1.288 15.084,-45.936 10.084,-53.936c-5,-8 -54.542,-101.936 -54.542,-101.936" style="fill-rule:nonzero;"/><path d="M498.276,318.739c-3.017,0.067 -8.813,14.82 -3.792,11.485c4.807,-3.192 7.658,-0.404 4.025,6.954c-3.632,7.359 7.274,-1.643 7.76,-4.519c0.486,-2.876 -0.389,-14.09 -7.993,-13.92" style="fill:#868686;fill-rule:nonzero;"/><path d="M491.735,321.076c6.469,-1.434 10.681,-2.499 16.703,1.408c-1.3,-4.367 -9.857,-6.464 -15.584,-4.281l-1.119,2.873Z" style="fill:#868686;fill-rule:nonzero;"/><path d="M438.841,513.387c0,0 -47.735,98.78 -67.325,89.123c-19.59,-9.657 -18.488,-22.626 -18.211,-29.248c0.276,-6.622 36.128,-158.04 73.671,-121.129c0,0 29.8,30.902 11.865,61.254" style="fill:#3c3c3b;fill-rule:nonzero;"/><path d="M353.197,543.941c0,0 -5.75,11.332 -10.06,7.182c-4.309,-4.151 3.033,-10.567 3.033,-10.567c0,0 -5.906,0.194 -10.374,-0.604c-4.469,-0.798 -0.958,-6.544 -0.958,-6.544c-8.459,4.788 -1.437,-9.576 -1.437,-9.576c-6.851,4.301 -13.592,2.516 -13.615,2.51c13.757,32.556 32.21,68.747 48.465,74.405l-8.317,-55.412c-10.769,20.387 -6.737,-1.394 -6.737,-1.394" style="fill:#3c3c3b;fill-rule:nonzero;"/><path d="M427.258,535.843c0,0 -2.325,-14.756 -7.075,-16.313c0,0 3.324,-0.283 8.5,1.75c5.176,2.032 4.25,-30.726 -6.5,-41.892c0,0 10.556,2.834 14.028,26.584c0,0 2.902,-35.904 2.472,-46.75c2.627,66.205 25.025,49.696 29.75,47c0,0 -30,17.609 -11.75,38c0,0 -18.965,-13.354 -21.483,-5.552c0,0 -2.361,-11.642 -2.867,-12.405c0,0 -4.338,8.217 -5.075,9.578" style="fill-rule:nonzero;"/><path d="M446.646,773.552l5.124,4.438l-13.128,-7.391l10.893,-2.734l0.561,-4.749l5.003,-3.826l7.27,-3.312l12.191,-2.178l-9.008,-6.797l-1.551,-5.197l9.835,-2.594l8.123,-2.908l-31.678,-12.39l20.701,0.096l12.609,-1.734l-41.718,-15.356l46.23,6.873l-18.417,-9.635l0.97,-4.65l9.836,-2.246l-33.47,-14.155l35.141,4.857l-22.152,-11.272l29.727,3.708l-24.678,-12.278l-12.412,-8.836l45.85,9.182l-43.206,-18.646l24.401,2.787l-13.902,-9.66l3.683,-3.897l15.998,0.436l-24.872,-13.953l33.716,7.076l-12.415,-9.705l-12.609,-10.065l35.05,8.609l-34.121,-19.004l28.462,6.572l15.104,1.444l-6.474,-7.897l-22.606,-15.704l11.419,-0.032l-4.931,-7.961l18.372,4.008l-23.15,-18.145l42.854,18.69l2.258,-3.639l-39.736,-30.699l44.468,23.782l-8.19,-11.077l-8.477,-12.433l15.504,6.82l-3.814,-9.533l6.063,-0.35l-11.405,-21.093l5.205,-3.398l10.95,6.559l6.08,0.467l0.42,-18.578l10.55,24.412l3.602,9.354l7.795,-28.164l5.301,-3.945l4.424,0.791l1.808,19.172l1.228,28.358l7.587,-21.474l4.289,6.274l6.575,-21.641l5.413,-15.758l3.36,24.826l4.659,3.723l4.582,-20.394l4.385,3.015l4.596,4.138l7.431,32.773l0.635,-39.342l9.642,34.255l-1.145,-33.758l10.552,26.042l6.06,1.585l-7.251,-36.83l21.665,41.239l-8.535,-29.892l21.528,22.46l-13.466,-22.794l10.92,4.238l-19.413,5.245l-17.281,5.196l48.84,3.595l-40.114,5.75l37.493,3.87l-12.95,5.091l24.112,4.195l-21.603,5.298l-27.6,5.443l5.104,4.653l29.946,4.052l-20.32,5.263l2.802,4.705l-18.255,5.217l51.121,3.542l-30.241,5.505l3.096,4.702l24.672,4.177l-11.147,5.045l-4.324,4.884l7.712,4.589l-13.858,5.111l-20.792,5.28l24.512,4.187l2.967,4.705l-0.8,4.796l-3.358,4.86l-22.515,5.322l13.303,4.459l-6.616,4.938l37.648,3.87l-30.186,5.508l-17.341,5.2l34.736,3.94l-19.761,5.257l-3.357,4.863l-6.356,4.934l35.921,3.908l-48.822,5.958l41.775,3.77l-22.006,5.311l-13.189,5.101l7.286,4.605l23.152,4.222l-18.121,5.219l3.736,4.691l20.684,4.285l-26.996,5.441l21.228,11.119l-9.62,20.207l-8.518,-36.168l-6.575,-17.098l-1.797,29.79l-3.536,12.738l-7.265,-23.916l-2.873,19.272l-6.544,-16.805l-2.928,18.68l-3.772,10.401l-9.15,-42.364l-2.635,21.521l-5.814,-9.679l-5.125,-2.921l-6.03,-11.771l-0.69,40.655l-4.558,2.708l-7.461,-25.841l-3.566,12.396l-6.712,-18.45l-0.289,44.62l-7.468,-25.868l-7.119,-22.454l-3.436,13.685l-6.336,-14.741l-1.332,34.35l-5.636,-7.88l-4.479,3.5l-5.439,-5.956l-4.099,7.226l-6.576,-17.113l-3.069,17.33l-2.388,24.007l-5.025,-1.839l-6.689,-18.215l-6.902,-20.277l-2.605,21.907l-3.528,12.828l-5.002,-1.68l-4.195,6.295l-5.451,-6.097l-6.12,-12.589l-5.986,-11.282l-5.575,-7.244l-1.296,34.764l-5.551,-7.016l-7.669,-27.79l-1.085,36.848l4.972,-27.756l-14.123,4.845Z" style="fill-rule:nonzero;"/></g><g id="Layer-11"><path d="M152.838,452.506c8.222,26.357 10.025,61.879 8.563,89.663c-1.309,24.846 -1.857,24.103 -3.433,54.508c-1.034,22.68 -39.361,28.782 -44.153,36.48c-6.547,10.515 3.883,18.19 13.83,15.713c15.103,-3.76 55.971,-12.783 72.078,-12.866c51.344,-0.264 78.74,42.433 91.028,87.747c-65.675,26.986 -165.251,55.611 -235.116,35.757c-21.739,-6.179 -32.006,-18.377 -38.366,-39.699c-10.082,-33.803 -14.038,-69.953 -17.912,-104.891c-4.235,-38.188 -6.65,-76.531 -8.955,-114.874l162.436,-47.538Z" style="fill:#d9d9d9;fill-rule:nonzero;"/><path d="M145.734,458.018c8.222,26.358 13.604,50.477 12.141,78.261c-1.308,24.846 -1.719,57.6 -22.395,75.04c-12.731,10.739 -61.749,25.723 -39.454,51.447c8.112,9.36 18.357,4.178 25.604,-3.073c10.309,-10.315 54.881,-18.094 70.988,-18.176c51.345,-0.264 78.741,42.434 91.029,87.749c-65.675,26.983 -165.251,55.609 -235.116,35.755c-21.739,-6.178 -63.884,-15.562 -70.244,-36.884c-10.082,-33.801 -4.531,-81.76 -8.405,-116.697c-4.234,-38.189 -12.219,-65.882 -14.524,-104.226l190.376,-49.196Z" style="fill-rule:nonzero;"/><path d="M-46.299,527.676c0,0 209.868,-45.254 215.05,-77.92c3.912,-24.664 -54.934,-149.969 -141.441,-140.509c-86.507,9.46 -119.754,55.987 -73.609,218.429" style="fill:#fff;fill-rule:nonzero;"/><path d="M-39.719,519.893c0,0 195.477,-42.151 200.304,-72.577c3.644,-22.973 -51.167,-139.685 -131.742,-130.874c-80.575,8.811 -111.542,52.147 -68.562,203.451" style="fill:#3c3c3b;fill-rule:nonzero;"/></g></g></svg>